<svg width="94" height="94" viewBox="0 0 94 94" fill="none" xmlns="http://www.w3.org/2000/svg">
<path fill-rule="evenodd" clip-rule="evenodd" d="M47 93C72.4051 93 93 72.4051 93 47C93 21.5949 72.4051 1 47 1C21.5949 1 1 21.5949 1 47C1 72.4051 21.5949 93 47 93Z" stroke="#DFE2E5"/>
<path fill-rule="evenodd" clip-rule="evenodd" d="M60.1754 42.8132H61.9764C63.898 42.8132 64.664 43.9038 64.6498 45.7357L64.6498 48.2695C64.6498 50.3732 63.6488 51.1948 61.9648 51.1948H60.1641L60.0843 51.434C59.8688 52.0795 59.6063 52.7075 59.299 53.3124L59.1857 53.5356L60.5641 54.9526C61.2389 55.6464 61.6032 56.2817 61.6032 57.0447C61.5673 57.7778 61.2369 58.48 60.6892 58.9734L58.7369 60.9793C57.5431 62.192 56.2814 62.3372 54.8435 60.8745L53.5019 59.4912L53.3264 59.3103L53.0991 59.4194C52.6773 59.622 52.2455 59.8018 51.8055 59.9583L51.5728 60.0411V61.7247C51.5728 63.8278 50.5694 64.65 48.8839 64.65H46.1353C44.4498 64.65 43.4464 63.8278 43.4464 61.7247V60.0407L43.2132 59.9581C42.7719 59.802 42.339 59.6221 41.916 59.4193L41.6896 59.3107L40.2134 60.8237C39.6996 61.4273 39.0071 61.7985 38.2572 61.8823C37.5469 61.8657 36.8306 61.5263 36.3274 60.9429L34.3776 58.9377C33.1775 57.704 33.0309 56.3849 34.4744 54.9009L35.8097 53.5282L35.6974 53.3054C35.3921 52.6997 35.1308 52.0715 34.9156 51.4261L34.8358 51.1868H33.0351C31.3359 51.1868 30.35 50.3775 30.35 48.2616V45.7384C30.35 43.6187 31.3415 42.8107 33.0515 42.8251L34.6029 42.8251H34.8547L34.9348 42.5863C35.0866 42.1333 35.2607 41.6886 35.4563 41.2537L35.554 41.0367L34.2266 39.6722C33.537 38.9632 33.1837 38.3373 33.1837 37.5762C33.2222 36.8426 33.5564 36.1402 34.108 35.6486L36.0616 33.6416C37.2539 32.4159 38.5214 32.2687 39.9614 33.749L40.9684 34.7802L41.1518 34.968L41.3834 34.8446C41.9718 34.5312 42.582 34.2629 43.2088 34.042L43.4425 33.9597V32.2753C43.4425 30.1678 44.4481 29.35 46.1663 29.35H48.9148C50.8374 29.35 51.6038 30.4373 51.6038 32.2753V33.9715L51.8372 34.0539C52.4628 34.2748 53.0717 34.543 53.6587 34.8564L53.8905 34.9801L55.0844 33.7575C55.5978 33.1557 56.2902 32.787 57.0391 32.7068C57.7474 32.7225 58.4605 33.0579 58.964 33.6355L60.9125 35.6394C61.4786 36.1474 61.8102 36.8482 61.8475 37.5975C61.8612 38.3374 61.5132 38.9473 60.8042 39.6761L59.6448 40.848L59.4758 41.0189L59.5746 41.238C59.7708 41.6735 59.9448 42.1193 60.0958 42.5736L60.1754 42.8132ZM61.9144 48.7031H62.2644V48.2631L62.2877 45.7018L62.2877 45.6987V45.2571H59.2975C58.7519 45.2581 58.2729 44.8774 58.1349 44.328C57.8888 43.3013 57.5017 42.3119 56.9858 41.3925C56.7112 40.9031 56.791 40.2837 57.1789 39.8859L59.1148 37.8958L59.1806 37.8239L59.4027 37.5804L57.0599 35.1719L56.7471 35.4935L54.8933 37.3913C54.4939 37.8018 53.8741 37.8693 53.4018 37.5553C52.3735 36.8859 51.2477 36.3969 50.067 36.1061C49.5435 35.9671 49.171 35.4718 49.1719 34.9024V32.2753V31.8337H45.8395V34.9217C45.8405 35.4917 45.468 35.987 44.9383 36.1276C43.7645 36.4256 42.643 36.9215 41.6224 37.5944C41.1488 37.908 40.529 37.8391 40.1308 37.4281L38.2793 35.5328L38.214 35.4657L37.9631 35.2078L35.6199 37.6166L35.9049 37.9279L37.8477 39.9255C38.232 40.3209 38.3129 40.9347 38.0438 41.4226C37.5329 42.3469 37.1476 43.339 36.8989 44.371C36.7618 44.9171 36.2827 45.2979 35.7378 45.2969L33.097 45.2969H32.747V48.6951H35.741C36.2866 48.6941 36.7656 49.0749 36.9036 49.6243C37.1933 50.8287 37.6748 51.9795 38.3281 53.0273C38.6383 53.5223 38.5698 54.1736 38.1657 54.5874L36.1749 56.6419L36.1134 56.7051L35.8758 56.9494L38.246 59.381L38.5547 59.0636L40.6417 56.9102C41.0234 56.5161 41.6112 56.4347 42.079 56.7096C42.9758 57.2391 43.9409 57.6376 44.9457 57.8933C45.4719 58.0329 45.8443 58.5282 45.8434 59.0976V61.7247V62.1663H49.2029V59.0982C49.2019 58.5282 49.5744 58.0329 50.1041 57.8923C51.1055 57.6383 52.0709 57.2397 52.9681 56.7092C53.4363 56.4316 54.0258 56.5119 54.4086 56.9064L56.5454 59.1109L56.5495 59.1294L56.7892 59.499L59.1886 57.0118L58.8903 56.7051L56.8433 54.5849C56.4392 54.1694 56.3721 53.5182 56.6826 53.0245C57.3396 51.9825 57.8218 50.8342 58.1088 49.628C58.2461 49.0817 58.7267 48.7007 59.2727 48.7031L61.9144 48.7031Z" fill="#DE5458"/>
<path fill-rule="evenodd" clip-rule="evenodd" d="M40 47.5C40 43.3579 43.3579 40 47.5 40C51.6404 40.0042 54.9958 43.3596 55 47.5C55 51.6421 51.6421 55 47.5 55C43.3579 55 40 51.6421 40 47.5ZM43.0801 47.5205C43.0829 49.9596 45.061 51.9353 47.5 51.9353V51.9199C49.9402 51.9178 51.9178 49.9402 51.9199 47.5C51.9114 45.061 49.9288 43.0898 47.4898 43.0955C45.0507 43.1012 43.0773 45.0815 43.0801 47.5205Z" fill="#F1B6B8"/>
</svg>
