<svg width="94" height="94" viewBox="0 0 94 94" fill="none" xmlns="http://www.w3.org/2000/svg">
<path fill-rule="evenodd" clip-rule="evenodd" d="M47 93C72.4051 93 93 72.4051 93 47C93 21.5949 72.4051 1 47 1C21.5949 1 1 21.5949 1 47C1 72.4051 21.5949 93 47 93Z" stroke="#DFE2E5"/>
<path d="M49.9669 36.6553C49.3008 36.6707 48.7322 37.0844 48.5544 37.6718L42.5546 56.4468C42.4066 56.9115 42.5344 57.4151 42.8952 57.7728C43.266 58.1404 43.825 58.2961 44.3572 58.1761C44.8835 58.0574 45.2964 57.689 45.4456 57.2137L51.4473 38.4331C51.5855 38.0163 51.5008 37.5631 51.2165 37.2115C50.9248 36.8508 50.4589 36.6417 49.9669 36.6553Z" fill="#F1B6B8"/>
<path d="M37.9074 38.5262L37.9 38.5337L29.9009 46.5124C29.3753 47.0393 29.3753 47.8463 29.9 48.3723L37.9244 56.378C38.2785 56.7857 38.8542 56.9766 39.4125 56.8661C39.9652 56.7567 40.4005 56.3723 40.5457 55.8769C40.6888 55.3891 40.5295 54.8663 40.1003 54.4932L33.0261 47.4505L33.3813 47.0961L40.1056 40.3872C40.5253 39.9815 40.6352 39.3856 40.3883 38.8776C40.1356 38.3576 39.558 38.03 38.9357 38.0628C38.5388 38.0862 38.1694 38.2536 37.9074 38.5262Z" fill="#DE5458"/>
<path d="M53.6069 38.8939C53.3691 39.3985 53.4807 39.9861 53.9001 40.3927L60.9739 47.4505L60.6184 47.8044L53.8742 54.5169C53.4705 54.8663 53.3112 55.3891 53.4543 55.8769C53.5995 56.3723 54.0348 56.7567 54.5875 56.8661C55.1458 56.9766 55.7215 56.7857 56.1 56.3519L64.0991 48.3732C64.6247 47.8463 64.6247 47.0393 64.1 46.5133L56.0932 38.5268C55.823 38.2467 55.4396 38.0785 55.0305 38.0634C54.4125 38.0457 53.85 38.378 53.6069 38.8939Z" fill="#DE5458"/>
</svg>
