<svg width="94" height="94" viewBox="0 0 94 94" fill="none" xmlns="http://www.w3.org/2000/svg">
<path fill-rule="evenodd" clip-rule="evenodd" d="M47 93C72.4051 93 93 72.4051 93 47C93 21.5949 72.4051 1 47 1C21.5949 1 1 21.5949 1 47C1 72.4051 21.5949 93 47 93Z" stroke="#DFE2E5"/>
<path fill-rule="evenodd" clip-rule="evenodd" d="M29.3024 32H64.6977C66.5187 32 68.0001 33.476 68 35.2904V58.7096C68 60.5239 66.5186 62 64.6976 62H29.3024C27.4814 62 26 60.524 26 58.7096V35.2904C26 33.476 27.4814 32 29.3024 32ZM29.3024 59.5467H34.2666V34.4533H29.3024C28.8393 34.4533 28.4623 34.8288 28.4623 35.2904V58.7096C28.4623 59.1711 28.8393 59.5466 29.3024 59.5467ZM65.5377 58.7096C65.5377 59.1712 65.1608 59.5467 64.6977 59.5467H36.7291V39.3535H65.5377V58.7096ZM36.7291 36.9001H65.5377V35.2904C65.5377 34.8288 65.1608 34.4533 64.6977 34.4533H36.7291V36.9001Z" fill="#DE5458"/>
<path d="M46.1956 50.3121C45.6999 50.3121 45.4385 50.461 45.4115 50.7585C45.3978 50.8916 45.3825 50.996 45.3657 51.072C45.3487 51.148 45.3131 51.2446 45.2588 51.3616C45.2044 51.4789 45.1145 51.5658 44.9889 51.6229C44.8633 51.6798 44.7053 51.7084 44.5154 51.7084C43.8976 51.7084 43.5888 51.3919 43.5888 50.7585V48.2416C43.5887 47.6085 43.8941 47.2917 44.5052 47.2917C45.089 47.2917 45.3911 47.5767 45.4115 48.1466C45.4319 48.4443 45.6967 48.593 46.2057 48.593C46.4908 48.593 46.6945 48.5441 46.8168 48.4458C46.939 48.3476 47 48.1625 47 47.8901C47 47.3012 46.7607 46.8391 46.2821 46.5034C45.8035 46.1679 45.1907 46 44.444 46C43.7175 46 43.1286 46.1804 42.6773 46.5413C42.2257 46.9023 42 47.469 42 48.2415V50.7584C42 51.5311 42.2257 52.0978 42.6773 52.4586C43.1286 52.8196 43.7175 53 44.444 53C45.1908 53 45.8035 52.8229 46.2821 52.4681C46.7607 52.1135 47 51.6291 47 51.0149C47 50.7427 46.939 50.5575 46.8168 50.4592C46.6945 50.3613 46.4874 50.3121 46.1956 50.3121Z" fill="#F1B6B8"/>
<path fill-rule="evenodd" clip-rule="evenodd" d="M51.7475 49.9606L52.9505 52.0598C52.9833 52.1042 52.9998 52.1611 53 52.2306C53 52.4143 52.8965 52.5885 52.6894 52.753C52.4823 52.9177 52.2637 53 52.0336 53C51.8034 53 51.6392 52.9082 51.5405 52.7246L50.1895 50.1981H49.5385V52.4872C49.5385 52.6329 49.4628 52.7451 49.3117 52.8243C49.1604 52.9035 48.9795 52.943 48.7693 52.943C48.5587 52.943 48.378 52.9036 48.2268 52.8243C48.0755 52.7453 48 52.6329 48 52.4872V46.4463C48 46.3261 48.0444 46.2218 48.1332 46.133C48.2219 46.0443 48.3353 46 48.4734 46H50.5148C52.1321 46 52.9408 46.6776 52.9408 48.0325C52.9408 49.0204 52.543 49.6632 51.7475 49.9606ZM50.5146 49.0584C50.8039 49.0584 51.0241 48.9904 51.1754 48.8541C51.3266 48.7181 51.4024 48.4917 51.4023 48.1749C51.4023 47.8584 51.3266 47.632 51.1754 47.4958C51.0241 47.3597 50.8038 47.2917 50.5146 47.2917H49.5383V49.0584H50.5146Z" fill="#F1B6B8"/>
<path d="M59.7763 46.1819C59.6273 46.0606 59.4435 46 59.225 46C58.927 46 58.7001 46.043 58.5446 46.1293C58.3889 46.2155 58.2151 46.4214 58.0231 46.7469L56.9999 48.4706L55.9768 46.7469C55.7847 46.4213 55.6108 46.2153 55.4553 46.1293C55.2996 46.043 55.0728 46 54.7748 46C54.5564 46 54.3725 46.0606 54.2235 46.1819C54.0745 46.3032 54 46.4915 54 46.7468V52.5404C54 52.6874 54.0761 52.8007 54.2285 52.8803C54.3807 52.9603 54.5628 53 54.7748 53C54.9866 53 55.1688 52.9602 55.3212 52.8803C55.4734 52.8005 55.5497 52.6874 55.5497 52.5404V48.8535L56.4934 50.5198C56.5928 50.7049 56.7549 50.7974 56.9801 50.7974C57.2119 50.7974 57.384 50.7049 57.4967 50.5198L58.4503 48.9493V52.5404C58.4503 52.6874 58.5264 52.8007 58.6788 52.8803C58.8311 52.9603 59.0131 53 59.2252 53C59.437 53 59.6191 52.9602 59.7715 52.8803C59.9238 52.8005 60 52.6874 60 52.5404V46.7468C59.9998 46.4917 59.9254 46.3032 59.7763 46.1819Z" fill="#F1B6B8"/>
</svg>
