<svg width="94" height="94" viewBox="0 0 94 94" fill="none" xmlns="http://www.w3.org/2000/svg">
<path fill-rule="evenodd" clip-rule="evenodd" d="M47 93C72.4051 93 93 72.4051 93 47C93 21.5949 72.4051 1 47 1C21.5949 1 1 21.5949 1 47C1 72.4051 21.5949 93 47 93Z" stroke="#DFE2E5"/>
<path fill-rule="evenodd" clip-rule="evenodd" d="M59.4231 31.6875H55.6411C55.1489 30.3235 53.8236 29.3438 52.2692 29.3438H50.8726C50.3805 27.9796 49.0545 27 47.5 27C45.9455 27 44.6195 27.9796 44.1274 29.3438H42.7308C41.1764 29.3438 39.8511 30.3235 39.3589 31.6875H35.5769C33.6046 31.6875 32 33.2646 32 35.2031V63.4844C32 65.4229 33.6046 67 35.5769 67H59.4231C61.3954 67 63 65.4229 63 63.4844V35.2031C63 33.2646 61.3954 31.6875 59.4231 31.6875ZM41.5385 32.8594C41.5385 32.2132 42.0733 31.6875 42.7308 31.6875H45.1154C45.7739 31.6875 46.3077 31.1628 46.3077 30.5156C46.3077 29.8695 46.8426 29.3438 47.5 29.3438C48.1574 29.3438 48.6923 29.8695 48.6923 30.5156C48.6923 31.1628 49.2261 31.6875 49.8846 31.6875H52.2692C52.9267 31.6875 53.4615 32.2132 53.4615 32.8594V34.0312H41.5385V32.8594ZM59.4231 64.6562C60.0805 64.6562 60.6154 64.1305 60.6154 63.4844V35.2031C60.6154 34.557 60.0805 34.0312 59.4231 34.0312H55.8462V35.2031C55.8462 35.8503 55.3123 36.375 54.6538 36.375H40.3462C39.6877 36.375 39.1538 35.8503 39.1538 35.2031V34.0312H35.5769C34.9195 34.0312 34.3846 34.557 34.3846 35.2031V63.4844C34.3846 64.1305 34.9195 64.6562 35.5769 64.6562H59.4231Z" fill="#DE5458"/>
<path d="M46.2576 41.2929C45.8393 40.9024 45.1608 40.9024 44.7425 41.2929L41.2143 44.5858L39.829 43.2929C39.4107 42.9024 38.7322 42.9024 38.3138 43.2929C37.8954 43.6834 37.8954 44.3166 38.3138 44.7071L40.4567 46.7071C40.875 47.0976 41.5535 47.0977 41.9719 46.7071L46.2576 42.7071C46.676 42.3166 46.676 41.6834 46.2576 41.2929Z" fill="#F1B6B8"/>
<path d="M46.2576 52.2929C45.8393 51.9024 45.1608 51.9024 44.7425 52.2929L41.2143 55.5858L39.829 54.2929C39.4107 53.9024 38.7322 53.9024 38.3138 54.2929C37.8954 54.6834 37.8954 55.3166 38.3138 55.7071L40.4567 57.7071C40.875 58.0976 41.5535 58.0977 41.9719 57.7071L46.2576 53.7071C46.676 53.3166 46.676 52.6834 46.2576 52.2929Z" fill="#F1B6B8"/>
<path d="M56 41H50C49.4477 41 49 41.4477 49 42C49 42.5523 49.4477 43 50 43H56C56.5523 43 57 42.5523 57 42C57 41.4477 56.5523 41 56 41Z" fill="#E2696C"/>
<path d="M56 45H50C49.4477 45 49 45.4477 49 46C49 46.5523 49.4477 47 50 47H56C56.5523 47 57 46.5523 57 46C57 45.4477 56.5523 45 56 45Z" fill="#E2696C"/>
<path d="M56 52H50C49.4477 52 49 52.4477 49 53C49 53.5523 49.4477 54 50 54H56C56.5523 54 57 53.5523 57 53C57 52.4477 56.5523 52 56 52Z" fill="#E2696C"/>
<path d="M56 56H50C49.4477 56 49 56.4477 49 57C49 57.5523 49.4477 58 50 58H56C56.5523 58 57 57.5523 57 57C57 56.4477 56.5523 56 56 56Z" fill="#E2696C"/>
</svg>
