<svg width="94" height="94" viewBox="0 0 94 94" fill="none" xmlns="http://www.w3.org/2000/svg">
<path fill-rule="evenodd" clip-rule="evenodd" d="M47 93C72.4051 93 93 72.4051 93 47C93 21.5949 72.4051 1 47 1C21.5949 1 1 21.5949 1 47C1 72.4051 21.5949 93 47 93Z" stroke="#DFE2E5"/>
<path fill-rule="evenodd" clip-rule="evenodd" d="M34.2 46.1243C35.0611 46.1243 35.8433 45.7807 36.4192 45.2235L39.5586 46.7985C39.5425 46.9284 39.5333 47.0603 39.5333 47.1946C39.5333 48.965 40.9689 50.4054 42.7333 50.4054C44.4978 50.4054 45.9333 48.965 45.9333 47.1946C45.9333 46.6996 45.8208 46.2302 45.6206 45.811L49.8878 41.5294C50.3056 41.7304 50.7733 41.8432 51.2667 41.8432C53.0311 41.8432 54.4667 40.4028 54.4667 38.6324C54.4667 38.298 54.4153 37.9755 54.3203 37.6723L58.0275 34.8826C58.5353 35.2229 59.1447 35.4216 59.8 35.4216C61.5644 35.4216 63 33.9812 63 32.2108C63 30.4404 61.5644 29 59.8 29C58.0356 29 56.6 30.4404 56.6 32.2108C56.6 32.5453 56.6514 32.8677 56.7464 33.171L53.0392 35.9607C52.5314 35.6203 51.9219 35.4216 51.2667 35.4216C49.5022 35.4216 48.0667 36.862 48.0667 38.6324C48.0667 39.1274 48.1792 39.5968 48.3794 40.016L44.1122 44.2976C43.6944 44.0967 43.2267 43.9838 42.7333 43.9838C41.8722 43.9838 41.09 44.3274 40.5142 44.8846L37.3747 43.3096C37.3908 43.1797 37.4 43.0479 37.4 42.9135C37.4 41.1431 35.9644 39.7027 34.2 39.7027C32.4356 39.7027 31 41.1431 31 42.9135C31 44.6839 32.4356 46.1243 34.2 46.1243ZM59.8 31.1405C60.3881 31.1405 60.8667 31.6208 60.8667 32.2108C60.8667 32.8009 60.3881 33.2811 59.8 33.2811C59.2119 33.2811 58.7333 32.8009 58.7333 32.2108C58.7333 31.6208 59.2119 31.1405 59.8 31.1405ZM52.3333 38.6324C52.3333 38.0424 51.8547 37.5622 51.2667 37.5622C50.6786 37.5622 50.2 38.0424 50.2 38.6324C50.2 39.2225 50.6786 39.7027 51.2667 39.7027C51.8547 39.7027 52.3333 39.2225 52.3333 38.6324ZM42.7333 46.1243C43.3214 46.1243 43.8 46.6046 43.8 47.1946C43.8 47.7846 43.3214 48.2649 42.7333 48.2649C42.1453 48.2649 41.6667 47.7846 41.6667 47.1946C41.6667 46.6046 42.1453 46.1243 42.7333 46.1243ZM35.2667 42.9135C35.2667 42.3235 34.7881 41.8432 34.2 41.8432C33.6119 41.8432 33.1333 42.3235 33.1333 42.9135C33.1333 43.5036 33.6119 43.9838 34.2 43.9838C34.7881 43.9838 35.2667 43.5036 35.2667 42.9135Z" fill="#F1B6B8"/>
<path fill-rule="evenodd" clip-rule="evenodd" d="M63.9453 62.9035H62.8203V40.7509C62.8203 40.1719 62.3482 39.7027 61.7656 39.7027H57.5469C56.9643 39.7027 56.4922 40.1719 56.4922 40.7509V62.9035H54.3828V47.0403C54.3828 46.4613 53.9107 45.9921 53.3281 45.9921H49.1094C48.5268 45.9921 48.0547 46.4613 48.0547 47.0403V62.9035H45.9453V55.4262C45.9453 54.8472 45.4732 54.3779 44.8906 54.3779H40.6719C40.0893 54.3779 39.6172 54.8472 39.6172 55.4262V62.9035H37.5078V51.2332C37.5078 50.6543 37.0357 50.185 36.4531 50.185H32.2344C31.6518 50.185 31.1797 50.6543 31.1797 51.2332V62.9035H30.0547C29.4721 62.9035 29 63.3728 29 63.9518C29 64.5308 29.4721 65 30.0547 65H63.9453C64.5279 65 65 64.5308 65 63.9518C65 63.3728 64.5279 62.9035 63.9453 62.9035ZM58.6016 41.7992H60.7109V62.9035H58.6016V41.7992ZM52.2734 48.0885H50.1641V62.9035H52.2734V48.0885ZM41.7266 56.4744H43.8359V62.9035H41.7266V56.4744ZM35.3984 52.2815H33.2891V62.9035H35.3984V52.2815Z" fill="#DE5458"/>
</svg>
