<svg width="94" height="94" viewBox="0 0 94 94" fill="none" xmlns="http://www.w3.org/2000/svg">
<path fill-rule="evenodd" clip-rule="evenodd" d="M47 93C72.4051 93 93 72.4051 93 47C93 21.5949 72.4051 1 47 1C21.5949 1 1 21.5949 1 47C1 72.4051 21.5949 93 47 93Z" stroke="#DFE2E5"/>
<path fill-rule="evenodd" clip-rule="evenodd" d="M44.2456 49.8826L53.3416 41.2989C55.0071 39.7616 57.3132 42.1957 55.6477 43.7331L45.3986 53.4698C44.758 54.1103 43.605 54.1103 42.9644 53.3416L37.5836 47.8327C36.0463 46.2954 38.4804 43.9893 40.0178 45.5267L44.2456 49.8826Z" fill="#F1B6B8"/>
<path fill-rule="evenodd" clip-rule="evenodd" d="M65 47.0641C65 37.0712 56.9288 29 47.0641 29C37.0712 29 29 37.0712 29 47.0641C29 56.9288 37.0712 65 47.0641 65C56.9288 65 65 56.9288 65 47.0641ZM31.6 47.0641C31.6 38.5071 38.5071 31.6 47.0641 31.6C55.5098 31.6 62.4 38.5241 62.4 47.0641C62.4 55.4929 55.4929 62.4 47.0641 62.4C38.5241 62.4 31.6 55.5098 31.6 47.0641Z" fill="#DE5458"/>
</svg>
