<svg width="499" height="383" viewBox="0 0 499 383" fill="none" xmlns="http://www.w3.org/2000/svg">
<path opacity="0.1" fill-rule="evenodd" clip-rule="evenodd" d="M470.239 60.2444C478.235 67.9468 484.91 76.9009 490 86.7514L41 90C52.3857 42.8994 103.134 7.38403 164.038 7.38403C185.245 7.38403 205.204 11.6906 222.712 19.2854C243.315 7.15136 268.586 0 295.915 0C326.373 0 354.298 8.86347 376.024 23.6359C391.595 23.7819 407.047 26.3624 421.814 31.2834L196.128 57.9703L470.239 60.2444ZM490.442 89C496.057 100.663 498.981 113.43 499 126.365V127.892H308.598L494.982 152.241C484.229 186.205 452.814 213.353 412.373 224.168C392.214 258.945 348.925 283 298.773 283C264.969 283 234.292 272.075 211.704 254.308C189.187 271.745 158.801 282.437 125.359 282.437C58.9217 282.437 4.53516 240.241 0 186.799L150.742 173.308L3.36052 154.802C5.92535 146.407 9.67997 138.419 14.5107 131.082L490.442 89Z" fill="#DE5458"/>
<path opacity="0.1" d="M249.5 383C320.469 383 378 378.523 378 373C378 367.477 320.469 363 249.5 363C178.531 363 121 367.477 121 373C121 378.523 178.531 383 249.5 383Z" fill="#DE5458"/>
<path d="M297 367.536V371H195V368.187C207.721 363.453 216.348 351.485 216.853 337.868C217.358 324.251 209.642 311.672 197.307 306H296.308C284.261 311.54 276.593 323.687 276.743 336.994C276.893 350.301 284.832 362.27 297 367.536Z" fill="#C8CAD7"/>
<path opacity="0.1" d="M297 305C287.785 309.378 280.976 317.832 278.474 328H216.526C214.023 317.832 207.214 309.379 198 305L297 305Z" fill="black"/>
<path d="M79 288V307.502C79 318.271 86.8229 327 96.4758 327H396.524C406.177 327 414 318.271 414 307.502V288H79Z" fill="#C8CAD7"/>
<path opacity="0.1" d="M297 366.546V370H195V367.196C197.796 366.154 200.441 364.743 202.864 363H290.745C292.698 364.402 294.795 365.591 297 366.546Z" fill="black"/>
<rect x="162" y="364" width="169" height="10" rx="5" fill="#C8CAD7"/>
<path d="M414 76.4241C413.988 66.7958 406.167 58.9976 396.524 59H96.4891C86.8416 58.9903 79.0122 66.7906 79 76.4241V292H414V76.4241Z" fill="#474157"/>
<path d="M406 83.6157V269.384C406.001 271.67 405.091 273.862 403.471 275.478C401.851 277.094 399.653 278.001 397.362 278H96.638C94.3467 278.001 92.1489 277.094 90.5287 275.478C88.9085 273.862 87.9988 271.67 88 269.384V83.6157C88 78.8574 91.8674 75 96.638 75H397.34C399.635 74.9942 401.837 75.8993 403.462 77.5157C405.087 79.1321 406 81.3268 406 83.6157Z" fill="#4C4C78"/>
<path d="M246 71C248.209 71 250 69.2091 250 67C250 64.7909 248.209 63 246 63C243.791 63 242 64.7909 242 67C242 69.2091 243.791 71 246 71Z" fill="white"/>
<path d="M246 317C251.523 317 256 312.523 256 307C256 301.477 251.523 297 246 297C240.477 297 236 301.477 236 307C236 312.523 240.477 317 246 317Z" fill="white"/>
<path d="M155 79V277H96.6128C94.3282 277.001 92.1368 276.097 90.5213 274.487C88.9059 272.876 87.9988 270.692 88 268.414V83.2907L88.3134 82.1245L89.1522 79H155Z" fill="white"/>
<path d="M162 83V101H88V84.1778L88.3114 83H162Z" fill="#4C4C78"/>
<path d="M406 83H88C88 80.8776 88.9102 78.8421 90.5303 77.3417C92.1504 75.8413 94.3475 74.9989 96.638 75H397.34C399.634 74.9935 401.837 75.8335 403.462 77.3345C405.087 78.8354 406 80.874 406 83Z" fill="#C8CAD7"/>
<path d="M96 81C97.1046 81 98 80.1046 98 79C98 77.8954 97.1046 77 96 77C94.8954 77 94 77.8954 94 79C94 80.1046 94.8954 81 96 81Z" fill="#EDEDF4"/>
<path d="M103 81C104.105 81 105 80.1046 105 79C105 77.8954 104.105 77 103 77C101.895 77 101 77.8954 101 79C101 80.1046 101.895 81 103 81Z" fill="#EDEDF4"/>
<path d="M110 81C111.105 81 112 80.1046 112 79C112 77.8954 111.105 77 110 77C108.895 77 108 77.8954 108 79C108 80.1046 108.895 81 110 81Z" fill="#EDEDF4"/>
<rect x="100" y="91" width="44" height="4" fill="#DE5458"/>
<rect opacity="0.5" x="100" y="110" width="44" height="4" fill="#DE5458"/>
<rect opacity="0.5" x="100" y="125" width="44" height="4" fill="#DE5458"/>
<rect opacity="0.5" x="100" y="139" width="44" height="4" fill="#DE5458"/>
<rect opacity="0.5" x="100" y="153" width="44" height="4" fill="#DE5458"/>
<rect opacity="0.5" x="100" y="167" width="44" height="4" fill="#DE5458"/>
<rect opacity="0.5" x="100" y="181" width="44" height="4" fill="#DE5458"/>
<rect opacity="0.5" x="100" y="196" width="44" height="4" fill="#DE5458"/>
<rect opacity="0.5" x="192" y="106" width="198" height="1" fill="#DCE0ED"/>
<rect opacity="0.5" x="192" y="120" width="198" height="1" fill="#DCE0ED"/>
<rect opacity="0.5" x="192" y="136" width="198" height="1" fill="#DCE0ED"/>
<rect opacity="0.5" x="192" y="151" width="198" height="1" fill="#DCE0ED"/>
<rect opacity="0.5" x="192" y="167" width="198" height="1" fill="#DCE0ED"/>
<path opacity="0.5" d="M390 168H192V137.642L210.159 146.648L228.951 149.209L245.441 144.206L265.334 128.681L275.341 122.866L282.656 121.448L289.655 121.825L301.167 127.546L316.811 137.576L329.09 139.167L338.827 135.79L359.461 118.78L369.996 115L381.02 116.715L390 121.931V168Z" fill="#DE5458"/>
<path d="M225.641 148.998C207.746 148.998 191.203 138.127 191 137.986L191.491 137.257C191.747 137.428 217.202 154.158 238.833 145.776C246.728 142.724 252.333 137.968 257.78 133.376C263.452 128.576 268.81 124.04 276.108 122.073C284.508 119.821 293.637 121.863 300.59 127.536C306.532 132.388 318.371 140.182 330.877 137.85C337.252 136.664 342.627 132.036 348.317 127.14C359.209 117.744 370.509 108.044 390 121.972L389.483 122.684C370.54 109.164 359.528 118.64 348.883 127.804C343.1 132.783 337.636 137.464 331.027 138.715C318.163 141.108 306.077 133.165 300.016 128.216C293.283 122.719 284.428 120.752 276.329 122.925C269.216 124.84 263.951 129.31 258.341 134.043C252.855 138.684 247.179 143.488 239.155 146.597C234.84 148.226 230.257 149.04 225.641 148.998Z" fill="#DE5458"/>
<path d="M287 126C289.761 126 292 123.761 292 121C292 118.239 289.761 116 287 116C284.239 116 282 118.239 282 121C282 123.761 284.239 126 287 126Z" fill="#DE5458"/>
<g opacity="0.1">
<path d="M157.125 202.86C157.127 202.84 157.127 202.82 157.125 202.8C157.359 201.926 157.481 201.025 157.49 200.12C157.415 200.844 157.293 201.562 157.125 202.27C157.08 202.464 157.08 202.666 157.125 202.86Z" fill="black"/>
</g>
<g opacity="0.5">
<rect x="209.075" y="202.26" width="29.2541" height="5.6" fill="#DCE0ED"/>
<rect x="276.249" y="202.26" width="29.2541" height="5.6" fill="#DCE0ED"/>
<rect x="343.422" y="202.26" width="29.2541" height="5.6" fill="#DCE0ED"/>
</g>
<path d="M206.185 244.796C206.185 235.891 213.668 229.052 222.87 229.052H223V225H222.87C211.359 225 202 233.656 202 244.796C201.999 250.627 204.607 256.172 209.15 260L212.115 257.129C208.356 254.067 206.185 249.553 206.185 244.796Z" fill="#DE5458"/>
<path opacity="0.5" d="M223.621 225V229.112C230.859 229.161 237.209 233.949 239.245 240.894C241.28 247.839 238.52 255.297 232.453 259.244C226.387 263.191 218.449 262.693 212.923 258.019L210 260.933C216.847 266.919 226.82 267.679 234.496 262.799C242.171 257.92 245.714 248.568 243.198 239.828C240.682 231.089 232.708 225.052 223.613 225L223.621 225Z" fill="#DE5458"/>
<path opacity="0.5" d="M357.639 228.185C366.798 228.185 373.833 235.668 373.833 244.87C373.833 244.91 373.833 244.955 373.833 245H378C378 244.955 378 244.91 378 244.87C378 233.364 369.096 224 357.639 224C351.641 223.998 345.937 226.606 342 231.15L344.953 234.115C348.103 230.356 352.746 228.185 357.639 228.185Z" fill="#DE5458"/>
<path d="M377.987 245.613H373.874C373.826 252.85 369.038 259.2 362.093 261.236C355.148 263.271 347.69 260.511 343.743 254.444C339.796 248.378 340.294 240.44 344.968 234.914L342.067 232C336.081 238.847 335.321 248.82 340.201 256.496C345.08 264.171 354.432 267.714 363.172 265.198C371.911 262.682 377.948 254.708 378 245.613H377.987Z" fill="#DE5458"/>
<path opacity="0.5" d="M298.824 227L298.006 231.014C304.023 233.393 307.87 239.175 307.87 245.915C307.873 253.939 301.837 260.734 293.729 261.836C285.622 262.937 277.928 258.006 275.705 250.284C273.482 242.562 277.41 234.416 284.909 231.2L283.087 227.581C273.78 231.688 268.973 241.881 271.812 251.492C274.65 261.103 284.269 267.202 294.375 265.8C304.481 264.398 311.994 255.921 312 245.915C312 237.216 306.747 229.796 298.824 227Z" fill="#DE5458"/>
<path d="M291.442 228.744C293.415 228.743 295.368 229.111 297.178 229.823L298 226.099C295.908 225.369 293.684 224.997 291.442 225C288.531 225 285.653 225.561 283 226.647L284.848 230C286.926 229.17 289.172 228.742 291.442 228.744Z" fill="#DE5458"/>
</svg>
