<svg width="34" height="32" viewBox="0 0 34 32" fill="none" xmlns="http://www.w3.org/2000/svg">
<path fill-rule="evenodd" clip-rule="evenodd" d="M6.76166 5.36726H1.08511C0.485838 5.36726 0 4.88754 0 4.29583C0 3.70411 0.485838 3.2244 1.08511 3.2244H6.76151C7.24287 1.41783 8.91089 0.081543 10.8894 0.081543C12.8679 0.081543 14.5359 1.41783 15.0173 3.2244H32.7702C33.3695 3.2244 33.8553 3.70411 33.8553 4.29583C33.8553 4.88754 33.3695 5.36726 32.7702 5.36726H15.0174C14.5361 7.17383 12.8681 8.51011 10.8895 8.51011C8.91104 8.51011 7.24301 7.17383 6.76166 5.36726ZM12.9874 4.29583C12.9874 3.15369 12.0463 2.2244 10.8895 2.2244C9.73283 2.2244 8.79168 3.15369 8.79168 4.29583C8.79168 5.43797 9.73283 6.36726 10.8895 6.36726C12.0463 6.36726 12.9874 5.43797 12.9874 4.29583Z" fill="#E2696C"/>
<path fill-rule="evenodd" clip-rule="evenodd" d="M25.5376 14.9285H32.7702C33.3695 14.9285 33.8555 15.4082 33.8555 15.9999C33.8555 16.5916 33.3696 17.0714 32.7704 17.0714H25.5378C25.0564 18.8778 23.3884 20.2142 21.4099 20.2142C19.4314 20.2142 17.7633 18.8778 17.282 17.0714H1.08511C0.485838 17.0714 0 16.5916 0 15.9999C0 15.4082 0.485838 14.9285 1.08511 14.9285H17.2818C17.7632 13.1219 19.4312 11.7856 21.4097 11.7856C23.3882 11.7856 25.0563 13.1219 25.5376 14.9285ZM19.312 15.9999C19.312 17.1421 20.2531 18.0714 21.4099 18.0714C22.5666 18.0714 23.5077 17.1421 23.5077 15.9999C23.5077 14.8578 22.5666 13.9285 21.4099 13.9285C20.2531 13.9285 19.312 14.8578 19.312 15.9999Z" fill="#F1B6B8"/>
<path fill-rule="evenodd" clip-rule="evenodd" d="M15.0173 26.6327H32.7702C33.3695 26.6327 33.8553 27.1124 33.8553 27.7042C33.8553 28.2959 33.3695 28.7756 32.7702 28.7756H15.0174C14.5361 30.5822 12.8681 31.9184 10.8895 31.9184C8.91104 31.9184 7.24301 30.5822 6.76166 28.7756H1.08511C0.485838 28.7756 0 28.2959 0 27.7042C0 27.1124 0.485838 26.6327 1.08511 26.6327H6.76151C7.24287 24.8263 8.91089 23.4899 10.8894 23.4899C12.8679 23.4899 14.5359 24.8263 15.0173 26.6327ZM8.79168 27.7042C8.79168 28.8463 9.73283 29.7756 10.8895 29.7756C12.0463 29.7756 12.9874 28.8463 12.9874 27.7042C12.9874 26.562 12.0463 25.6327 10.8895 25.6327C9.73283 25.6327 8.79168 26.562 8.79168 27.7042Z" fill="#E2696C"/>
</svg>
