<svg width="17" height="13" viewBox="0 0 17 13" fill="none" xmlns="http://www.w3.org/2000/svg">
<path fill-rule="evenodd" clip-rule="evenodd" d="M15.5059 0H1.49414C0.671301 0 0 0.6732 0 1.5V11.5C0 12.324 0.668312 13 1.49414 13H15.5059C16.3266 13 17 12.3291 17 11.5V1.5C17 0.676 16.3317 0 15.5059 0ZM15.2995 1L8.53168 7.79443L1.70528 1H15.2995ZM0.996094 1.7023V11.2929L5.79325 6.47697L0.996094 1.7023ZM1.70043 12L6.50061 7.181L8.18258 8.85507C8.37728 9.04887 8.69148 9.04823 8.88539 8.85353L10.5254 7.2071L15.2996 12H1.70043ZM11.2297 6.5L16.0039 11.2929V1.70707L11.2297 6.5Z" fill="white"/>
</svg>
