<svg width="571" height="436" viewBox="0 0 571 436" fill="none" xmlns="http://www.w3.org/2000/svg">
<path opacity="0.1" fill-rule="evenodd" clip-rule="evenodd" d="M258.473 113.752L159.234 41.6267C136.758 54.9292 116.579 70.8173 100.165 88.3868L178.101 163.625L90.25 99.7759C70.9173 123.681 58.583 150.145 56.5473 177.132C49.2944 273.28 191.756 366.658 311.215 375.829C430.675 385 494.954 381.8 502.207 285.652C509.46 189.504 440.695 9.81986 321.235 0.648819C285.363 -2.10512 247.821 4.03883 212.651 16.5886L281.999 58.2423L197.608 22.4047C189.85 25.6397 182.241 29.1822 174.829 33.0036L258.473 113.752Z" fill="#DE5458"/>
<path d="M321.234 391.272C458.956 391.272 570.603 384.371 570.603 375.86C570.603 367.348 458.956 360.447 321.234 360.447C183.512 360.447 71.8657 367.348 71.8657 375.86C71.8657 384.371 183.512 391.272 321.234 391.272Z" fill="#E2696C" fill-opacity="0.1"/>
<path opacity="0.1" d="M321.234 385.803C438.543 385.803 533.641 381.24 533.641 375.611C533.641 369.982 438.543 365.419 321.234 365.419C203.925 365.419 108.827 369.982 108.827 375.611C108.827 381.24 203.925 385.803 321.234 385.803Z" fill="#DE5458"/>
<rect x="139.382" y="80.5414" width="370.603" height="293.33" fill="#3F3D56"/>
<path d="M320.468 120.628H229.04C228.643 120.628 228.276 120.415 228.077 120.069C227.879 119.722 227.879 119.295 228.077 118.948C228.276 118.601 228.643 118.388 229.04 118.389H320.468C321.079 118.39 321.575 118.891 321.575 119.508C321.575 120.126 321.079 120.626 320.468 120.628Z" fill="#F2F2F2"/>
<path d="M420.549 132.94H276.751C276.138 132.94 275.641 132.439 275.641 131.821C275.641 131.203 276.138 130.702 276.751 130.702H420.549C420.946 130.702 421.312 130.915 421.51 131.261C421.709 131.608 421.709 132.034 421.51 132.381C421.312 132.727 420.946 132.94 420.549 132.94Z" fill="#F2F2F2"/>
<path d="M320.911 145.253H229.484C228.871 145.253 228.374 144.752 228.374 144.134C228.374 143.516 228.871 143.014 229.484 143.014H320.911C321.524 143.014 322.021 143.516 322.021 144.134C322.021 144.752 321.524 145.253 320.911 145.253Z" fill="#F2F2F2"/>
<path d="M420.549 145.477H329.122C328.509 145.477 328.013 144.976 328.013 144.358C328.013 143.739 328.509 143.238 329.122 143.238H420.549C421.162 143.238 421.659 143.739 421.659 144.358C421.659 144.976 421.162 145.477 420.549 145.477Z" fill="#F2F2F2"/>
<path d="M321.133 157.566H229.706C229.093 157.566 228.596 157.065 228.596 156.446C228.596 155.828 229.093 155.327 229.706 155.327H321.133C321.746 155.327 322.243 155.828 322.243 156.446C322.243 157.065 321.746 157.566 321.133 157.566Z" fill="#F2F2F2"/>
<path d="M321.355 169.879H229.928C229.315 169.879 228.818 169.377 228.818 168.759C228.818 168.141 229.315 167.64 229.928 167.64H321.355C321.968 167.64 322.465 168.141 322.465 168.759C322.465 169.377 321.968 169.879 321.355 169.879Z" fill="#F2F2F2"/>
<path d="M362.853 120.852H336.667C336.054 120.852 335.557 120.35 335.557 119.732C335.557 119.114 336.054 118.613 336.667 118.613H362.853C363.465 118.613 363.962 119.114 363.962 119.732C363.962 120.35 363.465 120.852 362.853 120.852Z" fill="#F2F2F2"/>
<path d="M362.853 157.566H336.667C336.054 157.566 335.557 157.065 335.557 156.446C335.557 155.828 336.054 155.327 336.667 155.327H362.853C363.465 155.327 363.962 155.828 363.962 156.446C363.962 157.065 363.465 157.566 362.853 157.566Z" fill="#F2F2F2"/>
<path d="M362.853 169.655H336.667C336.27 169.656 335.903 169.442 335.704 169.096C335.505 168.749 335.505 168.322 335.704 167.975C335.903 167.628 336.27 167.415 336.667 167.416H362.853C363.25 167.415 363.617 167.628 363.815 167.975C364.014 168.322 364.014 168.749 363.815 169.096C363.617 169.442 363.25 169.656 362.853 169.655Z" fill="#F2F2F2"/>
<path d="M406.791 169.655H380.605C379.994 169.653 379.498 169.153 379.498 168.535C379.498 167.918 379.994 167.417 380.605 167.416H406.791C407.188 167.415 407.555 167.628 407.754 167.975C407.953 168.322 407.953 168.749 407.754 169.096C407.555 169.442 407.188 169.656 406.791 169.655Z" fill="#F2F2F2"/>
<path d="M255.004 132.94H228.818C228.205 132.94 227.709 132.439 227.709 131.821C227.709 131.203 228.205 130.702 228.818 130.702H255.004C255.617 130.702 256.113 131.203 256.113 131.821C256.113 132.439 255.617 132.94 255.004 132.94Z" fill="#F2F2F2"/>
<path d="M320.578 301.961H229.151C228.538 301.961 228.042 301.46 228.042 300.841C228.042 300.223 228.538 299.722 229.151 299.722H320.578C321.191 299.722 321.688 300.223 321.688 300.841C321.688 301.46 321.191 301.961 320.578 301.961Z" fill="#F2F2F2"/>
<path d="M320.135 326.586H228.707C228.094 326.586 227.598 326.085 227.598 325.467C227.598 324.849 228.094 324.348 228.707 324.348H320.135C320.747 324.348 321.244 324.849 321.244 325.467C321.244 326.085 320.747 326.586 320.135 326.586Z" fill="#F2F2F2"/>
<path d="M320.357 338.899H228.929C228.532 338.9 228.165 338.687 227.966 338.34C227.768 337.993 227.768 337.566 227.966 337.219C228.165 336.873 228.532 336.659 228.929 336.66H320.357C320.754 336.659 321.121 336.873 321.319 337.219C321.518 337.566 321.518 337.993 321.319 338.34C321.121 338.687 320.754 338.9 320.357 338.899Z" fill="#F2F2F2"/>
<path d="M359.413 326.81H333.227C332.615 326.81 332.118 326.309 332.118 325.691C332.118 325.072 332.615 324.571 333.227 324.571H359.413C360.026 324.571 360.522 325.072 360.522 325.691C360.522 326.309 360.026 326.81 359.413 326.81Z" fill="#F2F2F2"/>
<path d="M359.413 338.899H333.227C332.615 338.899 332.118 338.398 332.118 337.78C332.118 337.161 332.615 336.66 333.227 336.66H359.413C360.026 336.66 360.522 337.161 360.522 337.78C360.522 338.398 360.026 338.899 359.413 338.899Z" fill="#F2F2F2"/>
<path d="M403.351 326.81H377.166C376.553 326.81 376.056 326.309 376.056 325.691C376.056 325.072 376.553 324.571 377.166 324.571H403.351C403.964 324.571 404.461 325.072 404.461 325.691C404.461 326.309 403.964 326.81 403.351 326.81Z" fill="#F2F2F2"/>
<path d="M420.66 314.273H276.862C276.249 314.273 275.752 313.772 275.752 313.154C275.752 312.536 276.249 312.035 276.862 312.035H420.66C421.273 312.035 421.77 312.536 421.77 313.154C421.77 313.772 421.273 314.273 420.66 314.273Z" fill="#F2F2F2"/>
<path d="M255.115 314.273H228.929C228.316 314.273 227.82 313.772 227.82 313.154C227.82 312.536 228.316 312.035 228.929 312.035H255.115C255.728 312.035 256.224 312.536 256.224 313.154C256.224 313.772 255.728 314.273 255.115 314.273Z" fill="#F2F2F2"/>
<path d="M420.66 351.436H276.862C276.465 351.436 276.098 351.223 275.899 350.877C275.7 350.53 275.7 350.102 275.899 349.756C276.098 349.409 276.465 349.196 276.862 349.197H420.66C421.273 349.197 421.77 349.698 421.77 350.316C421.77 350.934 421.273 351.436 420.66 351.436Z" fill="#F2F2F2"/>
<path d="M255.115 351.436H228.929C228.532 351.436 228.165 351.223 227.966 350.877C227.768 350.53 227.768 350.102 227.966 349.756C228.165 349.409 228.532 349.196 228.929 349.197H255.115C255.512 349.196 255.879 349.409 256.078 349.756C256.276 350.102 256.276 350.53 256.078 350.877C255.879 351.223 255.512 351.436 255.115 351.436Z" fill="#F2F2F2"/>
<path d="M298.498 199.429L262.992 234.8L298.498 270.171L306.487 262.112L279.636 235.024L306.709 207.712L298.498 199.429Z" fill="#DE5458"/>
<path d="M350.869 199.429L386.375 234.8L350.869 270.171L342.881 262.112L369.732 235.024L342.659 207.712L350.869 199.429Z" fill="#DE5458"/>
<path d="M149.239 92.4734C151.688 92.4734 153.674 90.4701 153.674 87.9989C153.674 85.5277 151.688 83.5244 149.239 83.5244C146.789 83.5244 144.803 85.5277 144.803 87.9989C144.803 90.4701 146.789 92.4734 149.239 92.4734Z" fill="#DE5458"/>
<path d="M161.067 92.4734C163.516 92.4734 165.502 90.4701 165.502 87.9989C165.502 85.5277 163.516 83.5244 161.067 83.5244C158.617 83.5244 156.631 85.5277 156.631 87.9989C156.631 90.4701 158.617 92.4734 161.067 92.4734Z" fill="#DE5458"/>
<path d="M172.894 92.4734C175.344 92.4734 177.33 90.4701 177.33 87.9989C177.33 85.5277 175.344 83.5244 172.894 83.5244C170.445 83.5244 168.459 85.5277 168.459 87.9989C168.459 90.4701 170.445 92.4734 172.894 92.4734Z" fill="#DE5458"/>
<rect opacity="0.1" x="139.382" y="95.4564" width="370.603" height="1.49151" fill="black"/>
<path opacity="0.1" d="M108.363 435.934C84.3822 435.934 64.9417 430.525 64.9417 423.853C64.9417 417.181 84.3822 411.772 108.363 411.772C132.344 411.772 151.785 417.181 151.785 423.853C151.785 430.525 132.344 435.934 108.363 435.934Z" fill="#DE5458"/>
<path d="M111.706 303.921C111.706 303.921 110.034 309.413 122.576 315.749C135.119 322.085 121.322 328.844 121.322 328.844L106.689 332.224C106.689 332.224 91.6379 330.112 89.9655 327.577C88.2932 325.042 85.3666 316.594 86.2027 315.327C86.8284 314.424 87.5276 313.576 88.2932 312.792C88.2932 312.792 98.3272 311.102 97.9092 306.456C97.4911 301.809 111.706 303.921 111.706 303.921Z" fill="#FFB9B9"/>
<path opacity="0.1" d="M111.706 303.921C111.706 303.921 110.034 309.413 122.576 315.749C135.119 322.085 121.322 328.844 121.322 328.844L106.689 332.224C106.689 332.224 91.6379 330.112 89.9655 327.577C88.2932 325.042 85.3666 316.594 86.2027 315.327C86.8284 314.424 87.5276 313.576 88.2932 312.792C88.2932 312.792 98.3272 311.102 97.9092 306.456C97.4911 301.809 111.706 303.921 111.706 303.921Z" fill="black"/>
<path d="M105.017 327.577C105.017 327.577 121.129 326.386 121.435 315.154C121.435 315.154 127.175 314.482 128.848 316.171C130.52 317.861 135.955 319.128 135.955 323.353C135.955 327.577 126.757 340.25 126.757 340.25C126.757 340.25 121.74 357.147 123.831 360.104C125.921 363.061 126.339 370.665 126.339 370.665C126.339 370.665 105.435 368.975 102.09 370.665C98.7453 372.355 85.3666 372.355 84.5304 370.665C83.6942 368.975 85.3666 347.854 85.3666 347.854C85.3666 347.854 81.6038 342.784 82.44 336.87L72.4059 325.042C72.4059 325.042 76.1687 313.637 82.0219 313.637C82.0219 313.637 89.9655 311.525 90.1746 312.581C90.3837 313.637 86.2028 325.465 105.017 327.577Z" fill="#DE5458"/>
<path d="M142.644 364.751C142.644 364.751 138.882 370.665 129.266 371.932C119.65 373.199 117.977 369.82 118.813 368.975C119.65 368.13 129.684 364.328 129.684 364.328L135.537 359.682L142.644 364.751Z" fill="#FFB9B9"/>
<path d="M74.0783 359.682L84.9485 366.018C84.9485 366.018 99.1635 365.173 93.7283 369.398C88.2932 373.622 78.2592 371.932 78.2592 371.932L68.6432 367.285L74.0783 359.682Z" fill="#FFB9B9"/>
<path d="M128.429 370.665C128.429 370.665 138.464 395.588 126.339 399.39C114.215 403.192 80.7676 402.347 73.2421 397.278C65.7165 392.209 63.6261 385.45 64.8804 383.338C66.1346 381.226 74.4963 375.312 80.3495 374.889C86.2028 374.467 128.429 370.665 128.429 370.665Z" fill="#2F2E41"/>
<path opacity="0.75" d="M128.429 370.665C128.429 370.665 138.464 395.588 126.339 399.39C114.215 403.192 80.7676 402.347 73.2421 397.278C65.7165 392.209 63.6261 385.45 64.8804 383.338C66.1346 381.226 74.4963 375.312 80.3495 374.889C86.2028 374.467 128.429 370.665 128.429 370.665Z" fill="#6A5C99"/>
<path d="M81.0658 372.213C81.0658 372.213 45.6484 359.259 46.0665 374.889C46.4846 390.519 68.6431 394.743 68.6431 394.743L75.3325 395.588L112.124 396.855C112.124 396.855 110.87 390.097 113.796 389.252C113.796 389.252 104.18 386.717 103.762 386.295C103.344 385.872 79.5134 377.424 77.841 377.001C76.1687 376.579 71.1517 373.199 67.3889 373.622C67.3889 373.622 63.208 370.242 58.6091 371.087L71.5697 371.932L81.0658 372.213Z" fill="#2F2E41"/>
<path opacity="0.8" d="M81.0658 372.213C81.0658 372.213 45.6484 359.259 46.0665 374.889C46.4846 390.519 68.6431 394.743 68.6431 394.743L75.3325 395.588L112.124 396.855C112.124 396.855 110.87 390.097 113.796 389.252C113.796 389.252 104.18 386.717 103.762 386.295C103.344 385.872 79.5134 377.424 77.841 377.001C76.1687 376.579 71.1517 373.199 67.3889 373.622C67.3889 373.622 63.208 370.242 58.6091 371.087L71.5697 371.932L81.0658 372.213Z" fill="#6A5C99"/>
<path d="M87.3233 374.311L82.8578 384.605L55.6822 374.889L53.5917 369.398L60.6996 368.13L74.9885 370.665L81.1858 372.354L87.3233 374.311Z" fill="#2F2E41"/>
<path opacity="0.8" d="M87.3233 374.311L82.8578 384.605L55.6822 374.889L53.5917 369.398L60.6996 368.13L74.9885 370.665L81.1858 372.354L87.3233 374.311Z" fill="#6A5C99"/>
<path d="M145.153 386.717C145.153 386.717 137.209 396.855 128.011 399.39C118.813 401.925 113.796 398.545 113.796 398.545L116.723 386.717L117.977 379.113L123.412 375.312L134.283 370.242L147.243 366.018C147.243 366.018 152.678 365.173 152.678 366.018C152.678 366.863 147.661 379.536 147.661 379.536L145.153 386.717Z" fill="#6A5C99"/>
<path d="M135.537 392.209C135.537 392.209 133.865 404.459 131.774 405.304C129.684 406.149 123.412 404.459 121.74 403.614C120.068 402.77 114.383 398.872 114.383 398.872C114.383 398.872 134.283 391.364 135.537 392.209Z" fill="#D9D9D9"/>
<path d="M97.4909 393.476L89.5473 394.743L90.3836 404.459L101.464 401.74L97.4909 393.476Z" fill="#FFB9B9"/>
<path d="M92.514 396.18C92.514 396.18 96.2368 400.657 92.474 403.192L89.9655 405.304C89.9655 405.304 81.6038 406.994 80.7676 407.839C79.9315 408.684 76.5868 406.571 76.5868 406.571C76.5868 406.571 76.1687 393.898 76.5868 393.054C77.0049 392.209 82.0219 391.364 82.44 392.209C82.8581 393.054 87.8751 394.321 90.8017 393.476L92.514 396.18Z" fill="#D9D9D9"/>
<path d="M125.921 373.622C125.921 373.622 155.187 356.302 159.786 362.639C164.385 368.975 169.402 377.846 156.023 384.605C142.644 391.364 100.836 405.304 100.836 405.304C100.836 405.304 94.5645 395.588 94.5645 393.054C94.5645 393.054 116.723 382.915 120.486 382.07C124.249 381.226 139.3 371.51 141.39 370.665C143.481 369.82 146.407 367.285 146.407 367.285L125.921 373.622Z" fill="#6A5C99"/>
<path d="M134.283 321.241L135.955 322.508C135.955 322.508 139.718 332.224 140.136 337.715C140.554 343.207 145.571 360.104 145.153 362.216C144.735 364.328 144.317 366.018 141.808 368.13C141.808 368.13 138.463 360.527 132.61 361.794L125.503 335.603L134.283 321.241Z" fill="#DE5458"/>
<path d="M75.7506 321.241L72.4059 325.042C72.4059 325.042 70.3155 330.112 70.3155 331.379C70.3155 332.646 66.1346 351.233 65.7165 352.078C65.2984 352.923 63.6261 363.484 65.7165 366.018C67.8069 368.553 71.5697 370.242 71.5697 370.242C71.5697 370.242 69.0612 361.371 77.0048 360.949L76.1687 357.569L83.6942 332.224L75.7506 321.241Z" fill="#DE5458"/>
<path d="M133.446 350.324V372.575C133.446 375.499 131.124 377.881 128.23 377.924L82.1752 378.614C79.3001 378.657 76.9166 376.373 76.8061 373.47L75.959 351.217C75.9042 349.777 76.4267 348.375 77.4081 347.33C78.3895 346.284 79.7469 345.683 81.1729 345.662L128.075 344.975C129.493 344.954 130.859 345.509 131.869 346.514C132.878 347.52 133.446 348.892 133.446 350.324Z" fill="#3F3D56"/>
<path d="M105.226 365.384C103.378 365.384 101.881 363.871 101.881 362.005C101.881 360.139 103.378 358.626 105.226 358.626C107.073 358.626 108.57 360.139 108.57 362.005C108.57 363.871 107.073 365.384 105.226 365.384Z" fill="#F2F2F2"/>
<path opacity="0.1" d="M97.8823 307.786C102.439 310.963 107.996 310.62 112.371 307.362C111.333 305.27 110.976 303.258 111.31 300.62C111.31 300.62 97.5511 294.95 98.0356 304.68C98.0939 305.674 98.0356 306.735 97.7679 307.7L97.8823 307.786Z" fill="black"/>
<path d="M106.956 253.545C106.03 252.287 104.583 251.541 103.149 250.946C96.3706 248.127 87.8256 247.994 82.4721 253.074C80.8584 254.602 79.6358 256.501 78.1704 258.181C71.2527 266.129 59.3814 268.271 49.3531 265.342C47.0337 264.665 44.6783 263.741 42.287 264.056C40.9286 264.276 39.6285 264.776 38.4663 265.525C32.8116 268.948 29.6067 275.259 25.3679 280.384C22.3068 284.086 18.5535 287.28 14.1844 289.202C9.81529 291.124 4.7989 291.691 0.249977 290.291C3.25293 292.426 6.51886 294.149 9.96362 295.416C13.6225 296.762 17.6051 297.581 21.4123 296.849C26.1725 295.933 30.1596 292.78 34.1196 289.948C38.1345 287.074 42.3148 284.447 46.6382 282.082C50.5443 279.94 54.864 277.963 59.2601 278.585C62.9954 279.112 66.2408 281.455 69.8727 282.498C73.5136 283.543 77.399 283.256 80.8539 281.688C90.1451 277.386 94.3973 264.702 104.345 262.363C106.889 261.768 107.356 262.683 107.878 259.512C108.215 257.471 108.219 255.261 106.956 253.545Z" fill="#35323E"/>
<path opacity="0.1" d="M6.44856 291.298C10.1075 292.643 14.09 293.462 17.8973 292.73C22.6575 291.815 26.6445 288.667 30.6046 285.829C34.6194 282.955 38.7997 280.328 43.1231 277.963C47.0292 275.821 51.3489 273.845 55.745 274.467C59.4803 274.993 62.7257 277.336 66.3576 278.384C69.999 279.428 73.8845 279.139 77.3389 277.569C86.63 273.268 90.8822 260.583 100.83 258.249C103.374 257.65 103.841 258.565 104.367 255.394C104.64 254.017 104.616 252.596 104.295 251.23C105.534 251.718 106.63 252.522 107.478 253.563C108.741 255.275 108.736 257.485 108.377 259.512C107.851 262.683 107.388 261.768 104.844 262.363C94.8963 264.702 90.644 277.386 81.3529 281.688C77.9017 283.267 74.0162 283.565 70.3717 282.53C66.7397 281.487 63.4943 279.144 59.759 278.617C55.3629 277.995 51.0432 279.99 47.1371 282.114C42.8129 284.48 38.6311 287.107 34.6141 289.98C30.654 292.812 26.667 295.975 21.9113 296.881C18.0861 297.613 14.1215 296.794 10.4626 295.448C7.01266 294.179 3.7421 292.453 0.735443 290.314C2.36993 290.809 4.06461 291.068 5.76982 291.083L6.44856 291.298Z" fill="black"/>
<path d="M104.889 304.985C94.0326 304.985 85.232 296.026 85.232 284.974C85.232 273.922 94.0326 264.962 104.889 264.962C115.745 264.962 124.545 273.922 124.545 284.974C124.545 296.026 115.745 304.985 104.889 304.985Z" fill="#35323E"/>
<path d="M104.758 309.227C96.705 309.227 90.1765 302.581 90.1765 294.382C90.1765 286.183 96.705 279.537 104.758 279.537C112.812 279.537 119.34 286.183 119.34 294.382C119.34 302.581 112.812 309.227 104.758 309.227Z" fill="#E5A6A6"/>
<path d="M89.3635 283.071C88.8719 278.855 95.4079 274.599 103.962 273.565C112.516 272.531 119.85 275.111 120.341 279.327C120.833 283.544 114.297 287.8 105.743 288.833C97.1883 289.867 89.8552 287.287 89.3635 283.071Z" fill="#35323E"/>
<path d="M103.715 270.527C100.697 270.527 98.2495 268.036 98.2495 264.962C98.2495 261.889 100.697 259.398 103.715 259.398C106.734 259.398 109.181 261.889 109.181 264.962C109.181 268.036 106.734 270.527 103.715 270.527Z" fill="#35323E"/>
<path opacity="0.1" d="M109.181 264.962C109.181 264.962 102.326 263.617 98.9867 265.878C95.6469 268.138 109.181 264.962 109.181 264.962Z" fill="black"/>
<path d="M85.2545 282.544C85.2545 283.001 85.5557 283.537 86.603 282.603C89.2461 280.256 95.3278 274.069 103.684 274.069C112.395 274.069 119.457 280.416 122.563 282.603C123.615 283.344 124.361 282.942 124.361 282.544C124.361 280.983 115.371 268.417 103.684 268.417C91.997 268.417 85.2545 280.983 85.2545 282.544Z" fill="#DE5458"/>
<path opacity="0.1" d="M85.767 281.043C85.9018 281.34 86.2704 281.468 87.0525 280.773C89.6956 278.425 95.7773 272.238 104.133 272.238C112.845 272.238 119.906 278.585 123.012 280.773C123.234 280.936 123.482 281.058 123.745 281.134C124.043 281.556 124.252 282.036 124.361 282.544C124.361 282.942 123.615 283.344 122.563 282.603C119.457 280.416 112.395 274.069 103.684 274.069C95.3278 274.069 89.2461 280.256 86.603 282.603C85.5557 283.518 85.2545 282.988 85.2545 282.544C85.3396 282.017 85.513 281.509 85.767 281.043Z" fill="black"/>
<rect width="1.46986" height="8.47033" transform="matrix(-1 0 0 1 86.5536 282.484)" fill="#6A5C99"/>
<path d="M88.5134 287.962C85.7205 287.962 83.4565 290.267 83.4565 293.11V293.444C83.4565 296.287 85.7205 298.592 88.5134 298.592V287.962Z" fill="#DE5458"/>
<rect width="2.28345" height="11.6233" rx="1.14172" transform="matrix(-1 0 0 1 89.4933 287.463)" fill="#6A5C99"/>
<rect width="1.46986" height="8.47033" transform="matrix(1 0 0 -1 122.886 291.119)" fill="#6A5C99"/>
<path d="M120.927 298.757C123.72 298.757 125.984 296.452 125.984 293.609V293.275C125.984 290.431 123.72 288.127 120.927 288.127V298.757H120.927Z" fill="#DE5458"/>
<rect width="2.28345" height="11.6233" rx="1.14172" transform="matrix(1 0 0 -1 119.951 299.256)" fill="#6A5C99"/>
<path d="M110.813 297.079C109.978 297.079 109.301 296.358 109.301 295.469C109.301 294.58 109.978 293.859 110.813 293.859C111.648 293.859 112.325 294.58 112.325 295.469C112.325 296.358 111.648 297.079 110.813 297.079Z" fill="#383F4D"/>
<path d="M98.2503 297.079C97.4154 297.079 96.7385 296.358 96.7385 295.469C96.7385 294.58 97.4154 293.859 98.2503 293.859C99.0853 293.859 99.7621 294.58 99.7621 295.469C99.7621 296.358 99.0853 297.079 98.2503 297.079Z" fill="#383F4D"/>
<path d="M110.597 296.491C110.34 296.491 110.132 296.269 110.132 295.995C110.132 295.722 110.34 295.5 110.597 295.5C110.854 295.5 111.062 295.722 111.062 295.995C111.062 296.269 110.854 296.491 110.597 296.491Z" fill="white"/>
<path d="M98.1284 296.491C97.8715 296.491 97.6632 296.269 97.6632 295.995C97.6632 295.722 97.8715 295.5 98.1284 295.5C98.3854 295.5 98.5937 295.722 98.5937 295.995C98.5937 296.269 98.3854 296.491 98.1284 296.491Z" fill="white"/>
<path fill-rule="evenodd" clip-rule="evenodd" d="M100.922 292H95.4588C94.689 292.002 94.0655 292.667 94.0631 293.486V297.45C94.0655 298.27 94.689 298.934 95.4588 298.936H100.922C101.692 298.934 102.316 298.27 102.318 297.45V293.486C102.316 292.667 101.692 292.002 100.922 292ZM96.6224 297.946C95.8525 297.944 95.229 297.28 95.2267 296.46V294.477C95.2295 293.658 95.8523 292.995 96.6215 292.992H99.7621C100.532 292.994 101.156 293.658 101.158 294.478V296.46C101.156 297.28 100.532 297.944 99.7621 297.946H96.6224Z" fill="#3F3D56"/>
<path fill-rule="evenodd" clip-rule="evenodd" d="M115 297.45V293.486C114.998 292.667 114.374 292.002 113.604 292H108.141C107.371 292.002 106.747 292.667 106.745 293.486V297.45C106.747 298.27 107.371 298.934 108.141 298.936H113.604C114.374 298.934 114.998 298.27 115 297.45ZM112.441 292.991C113.211 292.993 113.834 293.657 113.836 294.477V296.46C113.834 297.279 113.211 297.942 112.442 297.945H109.3C108.53 297.943 107.907 297.279 107.904 296.459V294.477C107.907 293.657 108.53 292.993 109.3 292.991H112.441Z" fill="#3F3D56"/>
<path d="M102.542 295.967C103.716 295.153 105.231 295.153 106.405 295.967C106.728 296.187 107.168 296.234 107.43 295.977L107.758 295.627C108.014 295.375 107.87 294.763 107.361 294.41C105.607 293.195 103.346 293.195 101.591 294.41C101.079 294.763 100.936 295.375 101.195 295.627L101.52 295.975C101.778 296.233 102.218 296.187 102.542 295.967Z" fill="#3F3D56"/>
</svg>
