<svg width="160" height="29" viewBox="0 0 160 29" fill="none" xmlns="http://www.w3.org/2000/svg">
<path fill-rule="evenodd" clip-rule="evenodd" d="M13.8858 2C13.8858 0.895433 14.7812 0 15.8858 0H18.0427C19.1473 0 20.0427 0.895431 20.0427 2V5.35995C20.3764 5.77677 20.7136 6.18525 20.9968 6.52391H24.2704C25.375 6.52391 26.2704 7.41934 26.2704 8.52391V10.9737C26.2704 12.0783 25.375 12.9737 24.2704 12.9737H22.1135C21.0089 12.9737 20.1135 12.0783 20.1135 10.9737V7.62617L19.1373 6.44977H15.8858C14.7812 6.44977 13.8858 5.55434 13.8858 4.44977V2Z" fill="#B22226"/>
<path fill-rule="evenodd" clip-rule="evenodd" d="M12.3846 2C12.3846 0.895431 11.4892 0 10.3846 0H8.19231C7.08774 0 6.19231 0.89543 6.19231 2V5.2322C5.88081 5.60982 5.56634 5.98043 5.29504 6.29605H2C0.895429 6.29605 -1.90735e-06 7.19148 -1.90735e-06 8.29605V10.5921C-1.90735e-06 11.6967 0.895429 12.5921 2 12.5921H4.19231C5.29688 12.5921 6.19231 11.6967 6.19231 10.5921V7.36116L7.10293 6.29605H10.3846C11.4892 6.29605 12.3846 5.40062 12.3846 4.29605V2Z" fill="#EA7722"/>
<path fill-rule="evenodd" clip-rule="evenodd" d="M12.3846 24.7104C12.3846 25.815 11.4892 26.7104 10.3846 26.7104H8.19231C7.08774 26.7104 6.19231 25.815 6.19231 24.7104V21.4783C5.88081 21.1006 5.56634 20.73 5.29504 20.4144H2C0.895429 20.4144 -1.90735e-06 19.519 -1.90735e-06 18.4144V16.1183C-1.90735e-06 15.0138 0.895429 14.1183 2 14.1183H4.19231C5.29688 14.1183 6.19231 15.0138 6.19231 16.1183V19.3493L7.10293 20.4144H10.3846C11.4892 20.4144 12.3846 21.3098 12.3846 22.4144V24.7104Z" fill="#F8C410"/>
<path fill-rule="evenodd" clip-rule="evenodd" d="M25.8951 24.7104C25.8951 25.815 24.9997 26.7104 23.8951 26.7104H21.7028C20.5982 26.7104 19.7028 25.815 19.7028 24.7104V21.4783C19.3913 21.1006 19.0768 20.73 18.8055 20.4144H15.5105C14.4059 20.4144 13.5105 19.519 13.5105 18.4144V16.1183C13.5105 15.0138 14.4059 14.1183 15.5105 14.1183H17.7028C18.8074 14.1183 19.7028 15.0138 19.7028 16.1183V19.3493L20.6134 20.4144H23.8951C24.9997 20.4144 25.8951 21.3098 25.8951 22.4144V24.7104Z" fill="white"/>
<path fill-rule="evenodd" clip-rule="evenodd" d="M45.566 5.68188C39.6891 5.68188 36.7507 8.70697 36.7507 14.7572C36.7507 20.7742 39.6891 23.7827 45.566 23.7827L49.3721 28.2891L51.14 26.9409L48.2916 23.5704C52.2614 22.6716 54.2463 19.7339 54.2463 14.7572C54.2463 8.70697 51.3529 5.68188 45.566 5.68188ZM45.566 21.9102C41.2852 21.9102 39.1448 19.5009 39.1448 14.6823C39.1448 9.93034 41.2852 7.55438 45.566 7.55438C49.7568 7.55438 51.8521 9.93034 51.8521 14.6823C51.8521 19.5009 49.7568 21.9102 45.566 21.9102ZM67.6926 10.5504V23.6578H66.1333L65.7404 21.9851C64.1771 23.1003 62.6056 23.6578 61.0258 23.6578C58.0628 23.6578 56.5814 22.0309 56.5814 18.7769V10.5504H58.8527V18.8143C58.8527 20.7617 59.8022 21.7354 61.7011 21.7354C63.0025 21.7354 64.2426 21.182 65.4212 20.0751V10.5504H67.6926ZM75.0124 15.6685C71.5255 15.6685 69.7821 17.0125 69.7821 19.7006C69.7821 22.3388 71.3168 23.6578 74.3862 23.6578C75.9005 23.6578 77.3001 23.2251 78.5851 22.3596L79.3709 23.6578H80.6478V14.6199C80.6478 11.9069 78.7325 10.5504 74.9019 10.5504C73.5759 10.5504 72.2172 10.7584 70.8257 11.1745V13.047C72.2172 12.6309 73.5759 12.4229 74.9019 12.4229C77.2183 12.4229 78.3764 13.176 78.3764 14.6823V15.9182C77.2551 15.7517 76.1337 15.6685 75.0124 15.6685ZM75.0124 17.541C73.0398 17.541 72.0535 18.2484 72.0535 19.6632C72.0535 21.078 72.831 21.7853 74.3862 21.7853C75.9578 21.7853 77.2878 21.3609 78.3764 20.512V17.7907C77.2551 17.6242 76.1337 17.541 75.0124 17.541ZM83.3512 10.5504V23.6578H85.6225V14.1331C86.793 13.0262 88.0289 12.4728 89.3304 12.4728C91.2375 12.4728 92.1911 13.4465 92.1911 15.3939V23.6578H94.4624V15.4313C94.4624 12.1773 92.8541 10.5504 89.6373 10.5504C88.0576 10.5504 86.6089 11.108 85.291 12.2231L84.8859 10.5504H83.3512ZM97.1658 8.42821H98.59L99.0811 10.5504H102.568V12.4229H99.4372V19.9503C99.4372 21.1737 99.9569 21.7853 100.996 21.7853H102.568V23.6578H100.407C98.2462 23.6578 97.1658 22.4803 97.1658 20.1251V8.42821ZM110.735 23.6578C111.963 23.6578 113.109 23.533 114.173 23.2833V21.4108C113.109 21.6605 111.922 21.7853 110.612 21.7853C107.625 21.7853 106.131 20.1417 106.131 16.8544C106.131 13.9 107.625 12.4229 110.612 12.4229C111.922 12.4229 113.109 12.5477 114.173 12.7974V10.9249C113.109 10.6752 111.963 10.5504 110.735 10.5504C106.151 10.5504 103.859 12.6517 103.859 16.8544C103.859 21.3901 106.151 23.6578 110.735 23.6578ZM118.472 5.80672V23.6578H116.201V5.80672H118.472ZM126.823 21.7853C124.245 21.7853 122.956 20.2083 122.956 17.0542C122.956 13.9666 124.245 12.4229 126.823 12.4229C129.402 12.4229 130.691 13.9666 130.691 17.0542C130.691 20.2083 129.402 21.7853 126.823 21.7853ZM120.684 17.1041C120.684 12.7349 122.731 10.5504 126.823 10.5504C130.916 10.5504 132.962 12.7349 132.962 17.1041C132.962 21.465 130.916 23.6453 126.823 23.6453C122.747 23.6453 120.701 21.465 120.684 17.1041ZM144.604 23.6578H146.163V10.5504H143.891V20.0751C142.713 21.182 141.473 21.7354 140.171 21.7354C138.272 21.7354 137.323 20.7617 137.323 18.8143V10.5504H135.052V18.7769C135.052 22.0309 136.533 23.6578 139.496 23.6578C141.076 23.6578 142.647 23.1003 144.211 21.9851L144.604 23.6578ZM157.522 13.2218C156.605 12.7724 155.557 12.5477 154.379 12.5477C151.784 12.5477 150.487 13.95 150.487 16.7546C150.487 20.0751 151.784 21.7354 154.379 21.7354C155.557 21.7354 156.605 21.5731 157.522 21.2486V13.2218ZM154.01 23.6578C156.302 23.6578 158.23 23.3957 159.793 22.8714V5.80672H157.522V11.1745C156.531 10.7584 155.48 10.5504 154.367 10.5504C150.29 10.5504 148.252 12.6475 148.252 16.842C148.252 21.3859 150.172 23.6578 154.01 23.6578Z" fill="white"/>
</svg>
