<svg width="35" height="26" viewBox="0 0 35 26" fill="none" xmlns="http://www.w3.org/2000/svg">
<path d="M33 24H2V0V0" stroke="#DE5458" stroke-width="2.5" stroke-linecap="round" stroke-linejoin="round"/>
<path fill-rule="evenodd" clip-rule="evenodd" d="M8.97499 15.7252C9.69333 15.7252 10.3459 15.444 10.8262 14.9881L13.4451 16.2768C13.4317 16.3831 13.4241 16.4909 13.4241 16.6008C13.4241 18.0494 14.6216 19.2279 16.0935 19.2279C17.5654 19.2279 18.7629 18.0494 18.7629 16.6008C18.7629 16.1958 18.6691 15.8118 18.502 15.4688L22.0618 11.9657C22.4103 12.1301 22.8005 12.2225 23.212 12.2225C24.6839 12.2225 25.8815 11.044 25.8815 9.59544C25.8815 9.32179 25.8386 9.05795 25.7593 8.80984L28.8519 6.52738C29.2755 6.80582 29.7839 6.96841 30.3305 6.96841C31.8024 6.96841 33 5.7899 33 4.34138C33 2.89287 31.8024 1.71436 30.3305 1.71436C28.8586 1.71436 27.6611 2.89287 27.6611 4.34138C27.6611 4.61503 27.704 4.87887 27.7832 5.12698L24.6906 7.40944C24.2671 7.131 23.7587 6.96841 23.212 6.96841C21.7401 6.96841 20.5426 8.14692 20.5426 9.59544C20.5426 10.0004 20.6364 10.3845 20.8035 10.7274L17.2438 14.2306C16.8953 14.0662 16.505 13.9738 16.0935 13.9738C15.3752 13.9738 14.7226 14.255 14.2423 14.7108L11.6233 13.4222C11.6368 13.3159 11.6444 13.2081 11.6444 13.0981C11.6444 11.6496 10.4469 10.4711 8.97499 10.4711C7.50308 10.4711 6.30554 11.6496 6.30554 13.0981C6.30554 14.5467 7.50308 15.7252 8.97499 15.7252ZM30.3305 3.46571C30.8211 3.46571 31.2204 3.85862 31.2204 4.34138C31.2204 4.82414 30.8211 5.21706 30.3305 5.21706C29.84 5.21706 29.4407 4.82414 29.4407 4.34138C29.4407 3.85862 29.84 3.46571 30.3305 3.46571ZM24.1018 9.59544C24.1018 9.11267 23.7026 8.71976 23.212 8.71976C22.7215 8.71976 22.3222 9.11267 22.3222 9.59544C22.3222 10.0782 22.7215 10.4711 23.212 10.4711C23.7026 10.4711 24.1018 10.0782 24.1018 9.59544ZM16.0935 15.7252C16.5841 15.7252 16.9833 16.1181 16.9833 16.6008C16.9833 17.0836 16.5841 17.4765 16.0935 17.4765C15.6029 17.4765 15.2037 17.0836 15.2037 16.6008C15.2037 16.1181 15.6029 15.7252 16.0935 15.7252ZM9.8648 13.0981C9.8648 12.6154 9.46555 12.2225 8.97499 12.2225C8.48443 12.2225 8.08517 12.6154 8.08517 13.0981C8.08517 13.5809 8.48443 13.9738 8.97499 13.9738C9.46555 13.9738 9.8648 13.5809 9.8648 13.0981Z" fill="#F1B6B8"/>
</svg>
