<svg width="26" height="32" viewBox="0 0 26 32" fill="none" xmlns="http://www.w3.org/2000/svg">
<path d="M12 8C11.4477 8 11 7.55228 11 7C11 6.44772 11.4477 6 12 6H20.5C21.0523 6 21.5 6.44772 21.5 7C21.5 7.55228 21.0523 8 20.5 8H12Z" fill="#DE5458"/>
<path d="M12 14C11.4477 14 11 13.5523 11 13C11 12.4477 11.4477 12 12 12H20.5C21.0523 12 21.5 12.4477 21.5 13C21.5 13.5523 21.0523 14 20.5 14H12Z" fill="#DE5458"/>
<path d="M12 20C11.4477 20 11 19.5523 11 19C11 18.4477 11.4477 18 12 18H20.5C21.0523 18 21.5 18.4477 21.5 19C21.5 19.5523 21.0523 20 20.5 20H12Z" fill="#DE5458"/>
<path d="M12 26C11.4477 26 11 25.5523 11 25C11 24.4477 11.4477 24 12 24H20.5C21.0523 24 21.5 24.4477 21.5 25C21.5 25.5523 21.0523 26 20.5 26H12Z" fill="#DE5458"/>
<mask id="path-5-inside-1" fill="white">
<rect width="26" height="32" rx="1"/>
</mask>
<rect width="26" height="32" rx="1" stroke="#DE5458" stroke-width="5" mask="url(#path-5-inside-1)"/>
<path fill-rule="evenodd" clip-rule="evenodd" d="M9.31628 7.13333C9.31628 8.3 8.33837 9.26667 7.15814 9.26667C5.97791 9.26667 5 8.3 5 7.13333C5 5.96667 5.97791 5 7.15814 5C8.33837 5 9.31628 5.96667 9.31628 7.13333ZM8.00116 7.13333C8.00116 6.66667 7.63023 6.3 7.15814 6.3C6.71977 6.3 6.31512 6.66667 6.31512 7.13333C6.31512 7.6 6.68605 7.96667 7.15814 7.96667C7.63023 7.96667 8.00116 7.6 8.00116 7.13333Z" fill="#F1B6B8"/>
<path fill-rule="evenodd" clip-rule="evenodd" d="M9.31628 13C9.31628 14.1667 8.33837 15.1334 7.15814 15.1334C5.97791 15.1334 5 14.2 5 13C5 11.8334 5.97791 10.8667 7.15814 10.8667C8.33837 10.8667 9.31628 11.8334 9.31628 13ZM8.00116 13.0334C8.00116 12.5667 7.63023 12.2 7.15814 12.2C6.71977 12.2 6.34884 12.5667 6.31512 13.0334C6.31512 13.5 6.68605 13.8667 7.15814 13.8667C7.63023 13.8667 8.00116 13.5 8.00116 13.0334Z" fill="#F1B6B8"/>
<path fill-rule="evenodd" clip-rule="evenodd" d="M9.31628 18.8633C9.31628 20.03 8.33837 20.9966 7.15814 20.9966C5.97791 20.9966 5 20.03 5 18.8633C5 17.6966 5.97791 16.73 7.15814 16.73C8.33837 16.73 9.31628 17.6966 9.31628 18.8633ZM8.00116 18.8966C8.00116 18.43 7.63023 18.0633 7.15814 18.0633C6.71977 18.0633 6.31512 18.43 6.31512 18.8966C6.31512 19.3633 6.68605 19.73 7.15814 19.73C7.63023 19.73 8.00116 19.3633 8.00116 18.8966Z" fill="#F1B6B8"/>
<path fill-rule="evenodd" clip-rule="evenodd" d="M9.31628 24.7334C9.31628 25.9001 8.33837 26.8668 7.15814 26.8668C5.97791 26.8668 5 25.9001 5 24.7334C5 23.5668 5.97791 22.6001 7.15814 22.6001C8.33837 22.6001 9.31628 23.5668 9.31628 24.7334ZM8.00116 24.7668C8.00116 24.3001 7.63023 23.9334 7.15814 23.9334C6.71977 23.9334 6.31512 24.2668 6.31512 24.7334C6.31512 25.2001 6.68605 25.5668 7.15814 25.5668C7.63023 25.5668 8.00116 25.2334 8.00116 24.7668Z" fill="#F1B6B8"/>
</svg>
