<svg width="17" height="17" viewBox="0 0 17 17" fill="none" xmlns="http://www.w3.org/2000/svg">
<path fill-rule="evenodd" clip-rule="evenodd" d="M13.0179 9.54346C13.4922 9.54346 13.9398 9.7491 14.3108 10.1337L16.4109 12.2321C16.7973 12.6129 17 13.0661 17 13.5383C17 14.0067 16.8011 14.4637 16.4224 14.856C16.2579 15.0273 16.0896 15.1911 15.9251 15.3472C15.9072 15.3644 15.8894 15.3816 15.8717 15.3986C15.6503 15.6118 15.4398 15.8144 15.2557 16.0365C15.2538 16.0403 15.2509 16.0432 15.248 16.046C15.2452 16.0489 15.2423 16.0517 15.2404 16.0556C14.6589 16.6839 13.9168 17 13.0332 17C12.9567 17 12.8725 16.9962 12.7922 16.9924C11.4801 16.9086 10.3058 16.4173 9.42594 16.0022C7.12312 14.894 5.10719 13.3212 3.43172 11.3295C2.05079 9.67675 1.12507 8.13441 0.505377 6.47021C0.252908 5.79234 -0.0760663 4.7565 0.0157405 3.64449C0.076945 2.9552 0.356191 2.36111 0.845827 1.87366L2.14642 0.567428L2.15407 0.559812C2.5366 0.19422 2.98799 0 3.45467 0C3.92136 0 4.36509 0.19422 4.73614 0.559812C4.98478 0.788306 5.22578 1.03203 5.45529 1.26815C5.57004 1.39 5.69245 1.51186 5.81102 1.62991L5.81105 1.62993L6.85535 2.66958C7.65866 3.46931 7.65866 4.50515 6.85535 5.30488C6.80179 5.3582 6.74824 5.41247 6.69469 5.46673C6.64113 5.521 6.58758 5.57527 6.53402 5.62858C6.50671 5.65614 6.47933 5.68381 6.45186 5.71156C6.19464 5.97142 5.92997 6.2388 5.64656 6.49686C5.8799 7.01098 6.20122 7.51747 6.67938 8.11918C7.66631 9.32639 8.69531 10.2594 9.82759 10.9754C9.93853 11.0439 10.0686 11.1086 10.2063 11.1772C10.2387 11.194 10.2716 11.2108 10.3047 11.2277C10.3694 11.2607 10.4351 11.2943 10.5008 11.3295L11.7096 10.1299C12.096 9.7453 12.5474 9.54346 13.0179 9.54346ZM15.3008 14.5239C15.4327 14.3962 15.5578 14.2751 15.6803 14.1438C16.0705 13.7401 16.0705 13.3403 15.6765 12.9518L13.5687 10.8535L13.5611 10.8459C13.4425 10.7164 13.2474 10.5679 13.0102 10.5679C12.7692 10.5679 12.5627 10.724 12.4326 10.8535L11.1244 12.1559C11.0593 12.2207 10.8604 12.4187 10.5429 12.4187C10.4167 12.4187 10.2943 12.3882 10.1642 12.3235C10.1566 12.3197 10.1489 12.3149 10.1413 12.3102C10.1336 12.3054 10.126 12.3006 10.1183 12.2968C10.0074 12.2283 9.87732 12.1635 9.73961 12.095L9.7396 12.095C9.58659 12.0188 9.42593 11.9388 9.2691 11.8398C8.04119 11.0668 6.92803 10.0576 5.87225 8.76277L5.86842 8.75896C5.28698 8.02397 4.90445 7.40703 4.63286 6.75202L4.62138 6.71774C4.55253 6.50067 4.49132 6.18078 4.8203 5.85327C4.82277 5.84835 4.82683 5.84502 4.83146 5.84123C4.834 5.83915 4.83671 5.83693 4.83942 5.83423C5.17222 5.53719 5.47825 5.23253 5.79957 4.90502C5.87338 4.83407 5.94551 4.76143 6.01819 4.68822C6.05474 4.65141 6.09143 4.61446 6.12854 4.57751C6.53402 4.17384 6.53402 3.80063 6.12854 3.39695L5.08424 2.3573C5.02352 2.29496 4.96279 2.23355 4.90253 2.17262C4.84132 2.11072 4.7806 2.04931 4.72084 1.9879C4.4875 1.74798 4.26563 1.5233 4.03229 1.30623L4.02081 1.2948C3.8984 1.17294 3.70331 1.02823 3.46232 1.02823C3.26723 1.02823 3.06832 1.12343 2.88088 1.29861L1.57646 2.59722C1.25896 2.91331 1.08682 3.28271 1.04857 3.72827C0.991188 4.42518 1.12125 5.16398 1.477 6.11223C2.05462 7.66599 2.92678 9.11313 4.2312 10.6783C5.81105 12.5558 7.71221 14.0372 9.87732 15.0806C10.6692 15.4577 11.7249 15.8994 12.861 15.9718C12.9184 15.9756 12.9796 15.9756 13.037 15.9756C13.6338 15.9756 14.089 15.7814 14.4753 15.3701C14.7125 15.0921 14.9649 14.8445 15.2136 14.6084C15.243 14.5798 15.2721 14.5517 15.3008 14.5239Z" fill="white"/>
</svg>
