<svg width="26" height="32" viewBox="0 0 26 32" fill="none" xmlns="http://www.w3.org/2000/svg">
<path fill-rule="evenodd" clip-rule="evenodd" d="M6.82513 18.0826C5.11995 18.0826 3.73763 16.7215 3.73763 15.0426C3.73763 13.3636 5.11995 12.0026 6.82513 12.0026C8.5303 12.0026 9.91263 13.3636 9.91263 15.0426C9.91263 15.8754 9.57251 16.63 9.02158 17.179L8.95845 17.0566L7.50948 17.7809L7.61347 17.9826C7.36182 18.0478 7.09759 18.0826 6.82513 18.0826ZM9.25057 21.1576L7.61347 17.9826C8.15554 17.842 8.63931 17.56 9.02158 17.179L10.6278 20.2942C10.0919 20.4566 9.61816 20.7589 9.25057 21.1576ZM17.8155 19.6927L14.5292 22.4456C14.5917 22.6869 14.625 22.9396 14.625 23.2C14.625 24.879 13.2427 26.24 11.5375 26.24C9.83232 26.24 8.45 24.879 8.45 23.2C8.45 22.4138 8.75312 21.6973 9.25057 21.1576L9.60169 21.8386L11.0507 21.1143L10.6278 20.2942C10.9154 20.207 11.2209 20.16 11.5375 20.16C12.3734 20.16 13.1317 20.4871 13.6876 21.0183L16.5737 18.6006C16.8774 19.0672 17.3071 19.4468 17.8155 19.6927ZM17.8155 19.6927L18.0435 19.5017L17.0038 18.2403L16.5737 18.6006C16.266 18.1279 16.0876 17.5657 16.0876 16.9626C16.0876 15.2836 17.4699 13.9226 19.1751 13.9226C20.8803 13.9226 22.2626 15.2836 22.2626 16.9626C22.2626 18.6415 20.8803 20.0026 19.1751 20.0026C18.6872 20.0026 18.2257 19.8911 17.8155 19.6927ZM8.28763 15.0426C8.28763 15.8379 7.63284 16.4826 6.82513 16.4826C6.01741 16.4826 5.36263 15.8379 5.36263 15.0426C5.36263 14.2473 6.01741 13.6026 6.82513 13.6026C7.63284 13.6026 8.28763 14.2473 8.28763 15.0426ZM13 23.2C13 23.9953 12.3452 24.64 11.5375 24.64C10.7298 24.64 10.075 23.9953 10.075 23.2C10.075 22.4047 10.7298 21.76 11.5375 21.76C12.3452 21.76 13 22.4047 13 23.2ZM19.1751 18.4026C19.9828 18.4026 20.6376 17.7579 20.6376 16.9626C20.6376 16.1673 19.9828 15.5226 19.1751 15.5226C18.3674 15.5226 17.7126 16.1673 17.7126 16.9626C17.7126 17.7579 18.3674 18.4026 19.1751 18.4026Z" fill="#F1B6B8"/>
<path d="M3.83407 5.51387C3.29559 5.51387 2.85907 5.08407 2.85907 4.55387C2.85907 4.02368 3.29559 3.59387 3.83407 3.59387H13.9629C14.5014 3.59387 14.9379 4.02368 14.9379 4.55387C14.9379 5.08407 14.5014 5.51387 13.9629 5.51387H3.83407Z" fill="#DE5458"/>
<path d="M4.15907 9.67391C3.62059 9.67391 3.18407 9.2441 3.18407 8.71391C3.18407 8.18371 3.62059 7.75391 4.15907 7.75391H9.51821C10.0567 7.75391 10.4932 8.18371 10.4932 8.71391C10.4932 9.2441 10.0567 9.67391 9.51821 9.67391H4.15907Z" fill="#DE5458"/>
<path fill-rule="evenodd" clip-rule="evenodd" d="M19.7059 2.72945L19.7059 6.07987C19.7059 6.43333 19.9969 6.71987 20.3559 6.71987H23.355L19.7059 2.72945ZM25.6166 6.80188C25.8141 6.91139 25.9476 7.11955 25.9481 7.35852L25.9988 31.0412C25.9995 31.3947 25.7091 31.6818 25.3501 31.6826L0.650003 31.6826C0.291018 31.6826 3.30221e-06 31.396 3.30221e-06 31.0426L0 0.642567C0 0.289104 0.291015 0.00256659 0.65 0.00256659L18.968 0.0026647C19.212 -0.0169426 19.4621 0.0717802 19.6386 0.26471L25.6166 6.80188ZM1.625 30.0826H24.3717L24.3251 8.31987H20.3559C19.0994 8.31987 18.0809 7.31699 18.0809 6.07987L18.0809 1.60266L1.625 1.60257L1.625 30.0826Z" fill="#DE5458"/>
</svg>
