<svg width="20" height="18" viewBox="0 0 20 18" fill="none" xmlns="http://www.w3.org/2000/svg">
<path fill-rule="evenodd" clip-rule="evenodd" d="M18.7544 11.8434C18.7544 11.619 18.7363 11.3977 18.7034 11.1794C19.4627 10.8339 20 10.061 20 9.15761C20 7.93604 19.0217 6.94782 17.8118 6.94782C17.2205 6.94782 16.6862 7.18441 16.293 7.56925C14.7983 6.47788 12.7361 5.77459 10.4398 5.69295L11.4362 0.954915L14.6932 1.6552C14.7321 2.49171 15.4104 3.15869 16.2479 3.15869C17.1124 3.15869 17.8118 2.45239 17.8118 1.57934C17.8118 0.7063 17.1124 0 16.2479 0C15.6326 0 15.1075 0.360782 14.8523 0.882065L11.2143 0.10014C11.1122 0.0788632 11.0071 0.0971335 10.92 0.15472C10.833 0.212075 10.773 0.300189 10.7519 0.403104C10.7519 0.403104 9.65935 5.65942 9.65935 5.68971C7.32117 5.75031 5.21979 6.45684 3.70101 7.56323C3.3078 7.18117 2.7765 6.94782 2.18818 6.94782C0.978553 6.94782 0 7.93905 0 9.15761C0 10.0549 0.5313 10.8278 1.29367 11.1734C1.26069 11.3917 1.2426 11.616 1.2426 11.8434C1.2426 15.2444 5.16277 18 9.99851 18C14.8343 18 18.7544 15.2444 18.7544 11.8434ZM9.44555 14.7601C10.4877 14.7601 11.95 14.467 12.6325 13.6458C12.7941 13.4514 13.053 13.4514 13.2146 13.6458C13.3729 13.8399 13.3729 14.1515 13.2146 14.3459C12.1297 15.6473 10.0548 15.75 9.44555 15.75C8.83628 15.75 6.75835 15.6473 5.67672 14.3459C5.51517 14.1518 5.51517 13.8402 5.67672 13.6458C5.83805 13.4514 6.09701 13.4514 6.25856 13.6458C6.94106 14.467 8.40042 14.7601 9.44555 14.7601ZM7.77778 10.6875C7.77778 9.75788 7.02925 9 6.11111 9C5.19321 9 4.44444 9.75788 4.44444 10.6875C4.44444 11.6169 5.19321 12.375 6.11111 12.375C7.02925 12.375 7.77778 11.6171 7.77778 10.6875ZM11.1111 10.6875C11.1111 9.75788 11.8596 9 12.7778 9C13.6959 9 14.4444 9.75788 14.4444 10.6875C14.4444 11.6169 13.6957 12.375 12.7778 12.375C11.8596 12.375 11.1111 11.6169 11.1111 10.6875Z" fill="white"/>
</svg>
