<svg width="28" height="34" viewBox="0 0 28 34" fill="none" xmlns="http://www.w3.org/2000/svg">
<path fill-rule="evenodd" clip-rule="evenodd" d="M0.602717 15.6017C0.196573 15.3351 -0.0327487 14.8693 0.00379707 14.3852C0.553178 7.41741 6.13813 1.90825 13.1193 1.44763V0.876289C13.1193 0.392328 13.512 0 13.9965 0C14.4809 0 14.8737 0.392328 14.8737 0.876289V1.44763C21.8576 1.90491 27.4464 7.41493 27.9962 14.3852C28.0327 14.8693 27.8034 15.3351 27.3973 15.6017C26.9911 15.8683 26.4722 15.8937 26.0419 15.668C25.1172 15.2448 24.1078 15.0386 23.091 15.0652C21.3613 15.0652 20.0981 15.5524 19.6069 16.0326C19.0198 16.6159 18.0713 16.6159 17.4841 16.0326C16.9929 15.5489 15.7298 15.0652 14 15.0652C12.2702 15.0652 11.0036 15.5524 10.5159 16.0326C9.92872 16.6159 8.98024 16.6159 8.3931 16.0326C7.90188 15.5489 6.63524 15.0652 4.90896 15.0652C3.8922 15.0386 2.88283 15.2448 1.95814 15.668C1.52784 15.8937 1.00886 15.8683 0.602717 15.6017ZM26.1675 13.8124L26.1717 13.8138L26.1682 13.8173L26.1675 13.8124ZM26.1675 13.8124C25.1778 13.4677 24.1356 13.2974 23.0875 13.3091C21.8557 13.2894 20.6339 13.5344 19.5051 14.0276C19.5968 10.2052 18.428 6.45865 16.1789 3.36495C21.4164 4.3294 25.4435 8.54172 26.1675 13.8124ZM13.9965 3.45258C15.2035 4.79155 17.8561 8.39485 17.7473 14.1118C16.5752 13.5607 15.2916 13.2872 13.9965 13.3126C12.7013 13.2872 11.4178 13.5607 10.2457 14.1118C10.1369 8.39134 12.7895 4.78804 13.9965 3.45258ZM8.49134 14.0346C8.39769 10.2119 9.5639 6.46435 11.8106 3.36845V3.36495C6.57165 4.33147 2.54512 8.54757 1.82481 13.8208C2.81467 13.4756 3.85705 13.3048 4.90545 13.3161C6.13851 13.2958 7.36151 13.5408 8.49134 14.0346Z" fill="#DE5458"/>
<path d="M13.1193 33.1237V32.0476C11.7881 31.7648 10.6803 30.848 10.1545 29.594C9.98473 29.1518 10.1974 28.6549 10.6348 28.472C11.0721 28.2891 11.5757 28.4864 11.772 28.9175C12.1488 29.8108 13.0262 30.3901 13.9965 30.3862C15.1544 30.3862 16.4035 29.7202 16.4035 28.2551C16.4035 27.8695 16.4035 26.6953 13.8 26.1029H13.7649C10.5194 25.3493 9.83517 23.5932 9.83517 22.2472C9.8364 20.3407 11.2322 18.7214 13.1193 18.4371V17.3856C13.1193 16.9016 13.512 16.5093 13.9965 16.5093C14.4809 16.5093 14.8737 16.9016 14.8737 17.3856V18.4687C15.9554 18.6922 16.9028 19.3384 17.5052 20.2633C17.7658 20.6727 17.6449 21.2157 17.235 21.4761C16.8252 21.7365 16.2816 21.6156 16.021 21.2062C15.5766 20.5211 14.8137 20.109 13.9965 20.1126C12.8386 20.1126 11.5895 20.7786 11.5895 22.2437C11.5895 22.6293 11.5895 23.8035 14.193 24.3959H14.2246C17.4701 25.1495 18.1543 26.9056 18.1543 28.2515C18.1586 30.1609 16.7633 31.7858 14.8737 32.0722V33.1237C14.8737 33.6077 14.4809 34 13.9965 34C13.512 34 13.1193 33.6077 13.1193 33.1237Z" fill="#F1B6B8"/>
</svg>
