<svg width="26" height="36" viewBox="0 0 26 36" fill="none" xmlns="http://www.w3.org/2000/svg">
<path fill-rule="evenodd" clip-rule="evenodd" d="M23.2323 10.214C23.2323 4.66546 18.7262 0.16748 13.1677 0.16748H12.8323C7.27378 0.16748 2.76774 4.66546 2.76774 10.214V15.4884C-1.1451 20.7442 -0.423514 28.1061 4.43566 32.5052C9.29484 36.9043 16.7052 36.9043 21.5643 32.5052C26.4235 28.1061 27.1451 20.7442 23.2323 15.4884V10.214ZM12.8323 2.67911H13.1677C17.3366 2.67911 20.7161 6.05259 20.7161 10.214V12.9349C16.1563 9.474 9.84374 9.474 5.28387 12.9349V10.214C5.28387 6.05259 8.66339 2.67911 12.8323 2.67911ZM2.76783 23.1209C2.77551 28.7565 7.35435 33.3209 13 33.321C18.6579 33.2979 23.2323 28.713 23.2323 23.0652C23.2091 17.4296 18.6178 12.8777 12.9722 12.8931C7.32652 12.9085 2.76015 17.4854 2.76783 23.1209Z" fill="#DE5458"/>
<path fill-rule="evenodd" clip-rule="evenodd" d="M9.92088 22.5033C10.2214 21.0336 11.4978 19.965 13 19.9257C14.5022 19.965 15.7786 21.0336 16.0791 22.5033C16.3796 23.973 15.6247 25.4554 14.258 26.0791V28.5908C14.258 29.2843 13.6948 29.8466 13 29.8466C12.3052 29.8466 11.7419 29.2843 11.7419 28.5908V26.0791C10.3753 25.4554 9.6204 23.973 9.92088 22.5033ZM13.7129 23.1489C13.7129 22.7559 13.3937 22.4373 13 22.4373C12.6063 22.4373 12.2871 22.7559 12.2871 23.1489C12.2871 23.5419 12.6063 23.8605 13 23.8605C13.3937 23.8605 13.7129 23.5419 13.7129 23.1489Z" fill="#F1B6B8"/>
</svg>
