<svg width="510" height="436" viewBox="0 0 510 436" fill="none" xmlns="http://www.w3.org/2000/svg">
<path d="M307.026 43.2899C277.03 43.5705 248.208 35.2612 220.65 26.0009C193.091 16.7406 165.757 6.3267 136.367 2.0759C117.449 -0.662693 95.9197 -0.231378 81.0508 10.3904C66.7416 20.6069 62.5061 37.3554 60.4159 52.81C58.8429 64.44 58.0755 76.6415 63.6127 87.2217C67.4369 94.5645 74.0425 100.593 78.7063 107.587C94.9276 131.923 84.8666 163.242 68.781 188.399C61.2384 200.2 52.4154 211.524 46.6917 223.985C40.968 236.446 38.5599 250.54 44.2369 262.752C49.8673 274.849 62.6969 283.538 76.4973 289.488C104.535 301.492 137.215 303.882 169.035 304.641C239.474 306.33 310.096 301.196 380.527 296.067C406.589 294.165 432.77 292.252 458.319 287.155C472.505 284.323 487.115 280.17 497.214 271.248C510.04 259.919 512.766 241.57 503.574 228.465C488.154 206.488 447.185 202.648 436.161 178.822C430.094 165.706 435.496 150.568 443.369 137.81C460.303 110.456 489.307 85.8446 490.007 55.3823C490.473 34.4661 475.591 14.1839 453.256 5.27179C429.832 -4.08204 397.804 -1.37462 381.244 16.5016C364.187 34.9078 333.517 43.0457 307.026 43.2899Z" fill="#FFF8D7"/>
<path d="M256.848 428.179V432.264H136.7V428.947C151.684 423.366 161.846 409.256 162.441 393.202C163.036 377.148 153.947 362.317 139.417 355.63H256.032C241.842 362.162 232.81 376.483 232.986 392.171C233.163 407.86 242.515 421.972 256.848 428.179Z" fill="#474157"/>
<path opacity="0.1" d="M256.848 354.184C246.001 359.276 237.986 369.108 235.041 380.934H162.125C159.179 369.108 151.164 359.277 140.318 354.184L256.848 354.184Z" fill="black"/>
<path d="M0.62793 334.664V357.44C0.62793 370.016 9.83941 380.211 21.2058 380.211H374.513C385.879 380.211 395.091 370.016 395.091 357.44V334.664H0.62793Z" fill="#474157"/>
<path opacity="0.1" d="M256.848 426.894V430.818H136.7V427.632C139.993 426.448 143.109 424.845 145.963 422.865H249.481C251.781 424.458 254.25 425.809 256.848 426.894Z" fill="black"/>
<rect x="98.3389" y="423.588" width="199.041" height="11.5674" rx="5.78368" fill="#474157"/>
<path d="M395.091 85.4903C395.077 74.1676 385.867 64.9971 374.513 65H21.2213C9.86141 64.9886 0.64226 74.1616 0.62793 85.4903V339.002H395.091V85.4903Z" fill="#474157"/>
<path d="M197.136 78.7363C199.734 78.7363 201.84 76.6323 201.84 74.037C201.84 71.4417 199.734 69.3378 197.136 69.3378C194.537 69.3378 192.431 71.4417 192.431 74.037C192.431 76.6323 194.537 78.7363 197.136 78.7363Z" fill="#9496B2"/>
<path d="M197.136 368.643C203.731 368.643 209.078 363.303 209.078 356.714C209.078 350.126 203.731 344.786 197.136 344.786C190.54 344.786 185.193 350.126 185.193 356.714C185.193 363.303 190.54 368.643 197.136 368.643Z" fill="#9496B2"/>
<path d="M377.353 115.407L377.353 309.438C377.353 314.408 373.079 318.437 367.807 318.437L35.5137 318.437C32.9817 318.438 30.553 317.49 28.7625 315.802C26.9721 314.115 25.9669 311.825 25.9682 309.438L25.9682 115.407C25.9643 113.018 26.9682 110.726 28.7588 109.035C30.5493 107.345 32.9795 106.395 35.5137 106.395L367.807 106.395C370.341 106.396 372.77 107.346 374.561 109.037C376.351 110.727 377.355 113.019 377.353 115.407Z" fill="#4C4C78"/>
<rect x="58.5038" y="129.553" width="284.144" height="165.726" fill="#5C5C85"/>
<rect opacity="0.5" x="85.9783" y="140.408" width="231.364" height="1.44739" fill="#DFE3EF"/>
<rect opacity="0.5" x="85.9783" y="157.053" width="231.364" height="1.44739" fill="#DFE3EF"/>
<rect opacity="0.5" x="85.9783" y="172.974" width="231.364" height="0.723693" fill="#DFE3EF"/>
<rect opacity="0.5" x="85.9783" y="187.448" width="231.364" height="1.44739" fill="#DFE3EF"/>
<rect opacity="0.5" x="85.9783" y="204.093" width="231.364" height="1.44739" fill="#DFE3EF"/>
<path opacity="0.5" d="M317.343 204.817H85.9783V173.311L107.201 182.656L129.159 185.317L148.427 180.128L171.672 164.014L183.366 157.979L191.912 156.509L200.091 156.901L213.543 162.836L231.824 173.243L246.168 174.894L257.549 171.388L281.659 153.735L293.972 149.816L306.855 151.596L317.343 157.009V204.817Z" fill="#DE5458"/>
<path d="M126.253 185.999C105.444 185.999 86.2201 174.427 85.9783 174.281L86.5515 173.503C86.847 173.682 116.447 191.488 141.59 182.567C150.757 179.309 157.29 174.26 163.604 169.366C170.196 164.26 176.425 159.435 184.911 157.343C194.65 154.944 205.29 157.115 213.373 163.157C220.282 168.32 234.048 176.594 248.583 174.151C255.999 172.884 262.245 167.962 268.859 162.75C281.519 152.742 294.648 142.412 317.343 157.233L316.734 157.998C294.711 143.605 281.908 153.69 269.531 163.446C262.814 168.739 256.46 173.743 248.776 175.054C233.819 177.607 219.767 169.151 212.719 163.882C204.891 158.035 194.596 155.93 185.184 158.251C176.917 160.286 170.774 165.046 164.271 170.083C157.89 175.026 151.285 180.136 141.967 183.442C136.95 185.179 131.621 186.046 126.253 185.999Z" fill="#DE5458"/>
<path d="M196.538 161.264C199.3 161.264 201.538 159.025 201.538 156.264C201.538 153.502 199.3 151.264 196.538 151.264C193.777 151.264 191.538 153.502 191.538 156.264C191.538 159.025 193.777 161.264 196.538 161.264Z" fill="#DE5458"/>
<rect x="85.9783" y="216.396" width="94.7148" height="68.0272" fill="#4C4C78"/>
<path d="M114.943 248.342H132.974V230.146C132.563 230.146 132.107 230.146 131.681 230.146C127.231 230.142 122.963 231.925 119.815 235.101C116.667 238.277 114.899 242.587 114.899 247.08C114.899 247.481 114.913 247.941 114.943 248.342Z" fill="#DFE3EF"/>
<path d="M121.737 259.319C125.977 264.613 133.261 266.359 139.436 263.56C145.611 260.762 149.108 254.13 147.931 247.447C146.755 240.765 141.205 235.729 134.446 235.212V251.123H118.514C118.733 254.119 119.857 256.977 121.737 259.319Z" fill="#DFE3EF"/>
<rect x="191.538" y="216.396" width="125.804" height="68.0272" fill="#4C4C78"/>
<rect x="203.83" y="266.331" width="5.78411" height="13.7502" fill="#DCE0ED"/>
<rect x="213.952" y="249.686" width="5.78411" height="30.3951" fill="#DCE0ED"/>
<rect x="224.074" y="224.357" width="5.78411" height="54.277" fill="#DFE3EF"/>
<rect x="232.75" y="224.357" width="5.78411" height="55.7244" fill="#DCE0ED"/>
<rect x="224.074" y="224.357" width="5.78411" height="55.7244" fill="#DE5458"/>
<rect x="242.872" y="248.962" width="5.78411" height="31.1188" fill="#DE5458"/>
<rect x="252.994" y="241.002" width="5.78411" height="39.0794" fill="#DCE0ED"/>
<rect x="263.117" y="228.699" width="5.78411" height="51.3822" fill="#DCE0ED"/>
<rect opacity="0.2" x="272.516" y="256.923" width="5.78411" height="23.1582" fill="#DE5458"/>
<rect opacity="0.2" x="282.638" y="246.791" width="5.78411" height="33.2899" fill="#DE5458"/>
<rect opacity="0.2" x="292.037" y="235.212" width="5.78411" height="44.869" fill="#DE5458"/>
<rect opacity="0.2" x="302.159" y="235.212" width="5.78411" height="44.869" fill="#DE5458"/>
</svg>
