<svg width="35" height="32" viewBox="0 0 35 32" fill="none" xmlns="http://www.w3.org/2000/svg">
<path fill-rule="evenodd" clip-rule="evenodd" d="M1.36209 13.2587L32.445 0.355187C32.445 0.355187 35 -0.832183 35 1.13498L29.4661 30.6678C29.4661 30.6678 28.6908 32.7161 26.5607 31.733L18.6853 25.3436L13.6322 30.2175C13.6322 30.2175 13.2388 30.5343 12.8062 30.3353C12.8062 30.3353 12.4334 30.2986 11.9688 28.7443C11.5042 27.1856 9.14343 18.994 9.14343 18.994L1.32227 16.209C1.32227 16.209 0.12309 15.7587 0.00627849 14.7742C-0.107471 13.7915 1.36209 13.2587 1.36209 13.2587ZM18.9541 21.2786L27.4096 28L32 4L6 14.5791L12.8147 16.9569L28.178 8.04056L16.9072 18.4827L16.3303 23.7581L18.9541 21.2786Z" fill="#DE5458"/>
</svg>
