<svg width="74" height="74" viewBox="0 0 74 74" fill="none" xmlns="http://www.w3.org/2000/svg">
<path fill-rule="evenodd" clip-rule="evenodd" d="M37 74C57.4345 74 74 57.4345 74 37C74 16.5655 57.4345 0 37 0C16.5655 0 0 16.5655 0 37C0 57.4345 16.5655 74 37 74Z" fill="#71C341"/>
<path d="M31.8505 43.3373L27.431 38.9222C26.1901 37.6826 24.1758 37.6826 22.9349 38.9222C22.3315 39.525 22 40.3231 22 41.1722C22 42.0212 22.3315 42.8193 22.9349 43.4137L29.5982 50.0703C30.8391 51.3099 32.8534 51.3099 34.0943 50.0703L52.0651 28.4212C52.6685 27.8184 53 27.0203 53 26.1797C53 25.3307 52.6685 24.5325 52.0651 23.9297C50.8242 22.6901 48.8099 22.6901 47.569 23.9297L31.8505 43.3373Z" fill="white"/>
</svg>
