<svg width="20" height="16" viewBox="0 0 20 16" fill="none" xmlns="http://www.w3.org/2000/svg">
<path d="M18.2812 3.9764C18.1249 10.8805 13.5937 15.6834 6.71873 15.9836C3.90624 16.1337 1.87499 15.2331 0 14.1825C2.03124 14.4827 4.68749 13.7323 6.09373 12.5315C4.06249 12.3814 2.81249 11.3308 2.18749 9.67981C2.81249 9.8299 3.43749 9.67981 3.90624 9.67981C2.03124 9.07945 0.781248 8.02882 0.624998 5.62739C1.09375 5.92757 1.71874 6.07766 2.34374 6.07766C0.937497 5.32721 0 2.47551 1.09375 0.67443C3.12499 2.77569 5.62498 4.57676 9.68747 4.87694C8.59372 0.67443 14.5313 -1.57691 16.875 1.27479C17.9688 1.1247 18.75 0.67443 19.5313 0.374251C19.2188 1.42488 18.5938 2.02524 17.8125 2.6256C18.5938 2.47551 19.375 2.32542 20 2.02524C19.8437 2.77569 19.0624 3.37604 18.2812 3.9764Z" fill="white"/>
</svg>
