<svg width="29" height="35" viewBox="0 0 29 35" fill="none" xmlns="http://www.w3.org/2000/svg">
<path d="M18.102 11.4964C18.1927 11.5638 18.3 11.5967 18.4063 11.5967C18.5563 11.5967 18.7047 11.5319 18.803 11.4077L23.2163 5.85372C23.3847 5.64217 23.3433 5.33806 23.1247 5.1752C22.906 5.01266 22.5917 5.05168 22.4237 5.26388L18.0103 10.8179C17.842 11.0294 17.883 11.3335 18.102 11.4964Z" fill="#F1B6B8"/>
<path fill-rule="evenodd" clip-rule="evenodd" d="M20.4623 6.67535C20.4623 7.60026 19.6877 8.35038 18.7313 8.35038C17.7747 8.35038 17 7.59994 17 6.67503C17 5.75012 17.7747 5 18.7313 5C19.6877 5 20.4623 5.75044 20.4623 6.67535ZM19.4623 6.67503C19.4623 6.28481 19.1343 5.96748 18.7313 5.96748C18.328 5.96748 18 6.28481 18 6.67503C18 7.06525 18.328 7.38258 18.7313 7.38258C19.1343 7.38258 19.4623 7.06525 19.4623 6.67503Z" fill="#F1B6B8"/>
<path fill-rule="evenodd" clip-rule="evenodd" d="M22.519 11.7001C21.5624 11.7001 20.7874 10.9503 20.7874 10.025C20.7874 9.10014 21.5624 8.35034 22.519 8.35034C23.475 8.35034 24.25 9.10014 24.25 10.025C24.25 10.9503 23.475 11.7001 22.519 11.7001ZM22.519 10.7326C22.922 10.7326 23.25 10.4153 23.25 10.025C23.25 9.63515 22.922 9.31782 22.519 9.31782C22.1157 9.31782 21.7874 9.63515 21.7874 10.025C21.7874 10.4153 22.1157 10.7326 22.519 10.7326Z" fill="#F1B6B8"/>
<path d="M4.7619 13C4.34112 13 4 12.5523 4 12C4 11.4477 4.34112 11 4.7619 11H11.2381C11.6589 11 12 11.4477 12 12C12 12.5523 11.6589 13 11.2381 13H4.7619Z" fill="#DE5458"/>
<path d="M4.95238 17C4.4264 17 4 16.5523 4 16C4 15.4477 4.4264 15 4.95238 15H13.0476C13.5736 15 14 15.4477 14 16C14 16.5523 13.5736 17 13.0476 17H4.95238Z" fill="#DE5458"/>
<mask id="path-6-inside-1" fill="white">
<path fill-rule="evenodd" clip-rule="evenodd" d="M12.7517 5C12.2688 6.06737 12 7.25229 12 8.5C12 13.1944 15.8056 17 20.5 17C21.7477 17 22.9326 16.7312 24 16.2483V33H2V5H12.7517ZM14.019 3H1C0.447715 3 0 3.44772 0 4V34C0 34.5523 0.447716 35 1 35H25C25.5523 35 26 34.5523 26 34V14.981C27.8354 13.4218 29 11.0969 29 8.5C29 3.80558 25.1944 0 20.5 0C17.9031 0 15.5782 1.16459 14.019 3ZM15.0218 5C14.375 6.0103 14 7.21136 14 8.5C14 12.0899 16.9101 15 20.5 15C21.7886 15 22.9897 14.625 24 13.9782V5H15.0218ZM26 11.9657C26.6334 10.9626 27 9.77408 27 8.5C27 7.22592 26.6334 6.03745 26 5.03431V11.9657ZM23.9657 3H17.0343C18.0374 2.36657 19.2259 2 20.5 2C21.7741 2 22.9626 2.36657 23.9657 3Z"/>
</mask>
<path d="M12.7517 5L14.5739 5.8244L15.8518 3H12.7517V5ZM24 16.2483H26V13.1482L23.1756 14.4261L24 16.2483ZM24 33V35H26V33H24ZM2 33H0V35H2V33ZM2 5V3H0V5H2ZM14.019 3V5H14.9443L15.5433 4.29483L14.019 3ZM26 14.981L24.7052 13.4567L24 14.0557V14.981H26ZM15.0218 5V3H13.9275L13.3374 3.92162L15.0218 5ZM24 13.9782L25.0784 15.6626L26 15.0725V13.9782H24ZM24 5H26V3H24V5ZM26 11.9657H24V18.8789L27.6911 13.0335L26 11.9657ZM26 5.03431L27.6911 3.96649L24 -1.87892V5.03431H26ZM23.9657 3V5H30.8789L25.0335 1.30892L23.9657 3ZM17.0343 3L15.9665 1.30892L10.1211 5H17.0343V3ZM14 8.5C14 7.54219 14.2059 6.63787 14.5739 5.8244L10.9296 4.1756C10.3318 5.49687 10 6.96239 10 8.5H14ZM20.5 15C16.9101 15 14 12.0899 14 8.5H10C10 14.299 14.701 19 20.5 19V15ZM23.1756 14.4261C22.3621 14.7941 21.4578 15 20.5 15V19C22.0376 19 23.5031 18.6682 24.8244 18.0704L23.1756 14.4261ZM26 33V16.2483H22V33H26ZM2 35H24V31H2V35ZM0 5V33H4V5H0ZM12.7517 3H2V7H12.7517V3ZM14.019 1H1V5H14.019V1ZM1 1C-0.656854 1 -2 2.34315 -2 4H2C2 4.55228 1.55228 5 1 5V1ZM-2 4V34H2V4H-2ZM-2 34C-2 35.6569 -0.656852 37 1 37V33C1.55228 33 2 33.4477 2 34H-2ZM1 37H25V33H1V37ZM25 37C26.6569 37 28 35.6569 28 34H24C24 33.4477 24.4477 33 25 33V37ZM28 34V14.981H24V34H28ZM27 8.5C27 10.4853 26.1124 12.2613 24.7052 13.4567L27.2948 16.5052C29.5585 14.5823 31 11.7085 31 8.5H27ZM20.5 2C24.0899 2 27 4.91015 27 8.5H31C31 2.70101 26.299 -2 20.5 -2V2ZM15.5433 4.29483C16.7387 2.88765 18.5147 2 20.5 2V-2C17.2915 -2 14.4177 -0.558467 12.4948 1.70517L15.5433 4.29483ZM13.3374 3.92162C12.4907 5.24421 12 6.81786 12 8.5H16C16 7.60486 16.2593 6.77639 16.7062 6.07838L13.3374 3.92162ZM12 8.5C12 13.1944 15.8056 17 20.5 17V13C18.0147 13 16 10.9853 16 8.5H12ZM20.5 17C22.1821 17 23.7558 16.5093 25.0784 15.6626L22.9216 12.2938C22.2236 12.7407 21.3951 13 20.5 13V17ZM26 13.9782V5H22V13.9782H26ZM24 3H15.0218V7H24V3ZM27.6911 13.0335C28.5204 11.7202 29 10.1631 29 8.5H25C25 9.38511 24.7465 10.2049 24.3089 10.8979L27.6911 13.0335ZM29 8.5C29 6.83695 28.5204 5.2798 27.6911 3.96649L24.3089 6.10214C24.7465 6.7951 25 7.61489 25 8.5H29ZM28 11.9657V5.03431H24V11.9657H28ZM23.9657 1H17.0343V5H23.9657V1ZM20.5 0C18.8369 0 17.2798 0.479631 15.9665 1.30892L18.1021 4.69108C18.7951 4.25351 19.6149 4 20.5 4V0ZM25.0335 1.30892C23.7202 0.479631 22.1631 0 20.5 0V4C21.3851 4 22.2049 4.25351 22.8979 4.69108L25.0335 1.30892Z" fill="#DE5458" mask="url(#path-6-inside-1)"/>
<path fill-rule="evenodd" clip-rule="evenodd" d="M20.5 15C24.0899 15 27 12.0899 27 8.5C27 4.91015 24.0899 2 20.5 2C16.9101 2 14 4.91015 14 8.5C14 12.0899 16.9101 15 20.5 15Z" stroke="#DE5458" stroke-width="2"/>
<path d="M11.9738 30.499V29.8838C11.1738 29.7221 10.508 29.1979 10.1919 28.481C10.0899 28.2281 10.2177 27.944 10.4806 27.8395C10.7434 27.7349 11.0461 27.8477 11.1641 28.0942C11.3905 28.6049 11.9179 28.9361 12.5011 28.9339C13.197 28.9339 13.9477 28.5531 13.9477 27.7154C13.9477 27.495 13.9477 26.8236 12.383 26.485H12.3619C10.4112 26.0541 10 25.0501 10 24.2806C10.0007 23.1906 10.8397 22.2647 11.9738 22.1022V21.501C11.9738 21.2243 12.2099 21 12.5011 21C12.7922 21 13.0283 21.2243 13.0283 21.501V22.1202C13.6784 22.2481 14.2478 22.6175 14.6099 23.1463C14.7665 23.3804 14.6938 23.6908 14.4475 23.8397C14.2012 23.9885 13.8745 23.9195 13.7178 23.6854C13.4507 23.2937 12.9922 23.0581 12.5011 23.0601C11.8051 23.0601 11.0544 23.4409 11.0544 24.2786C11.0544 24.499 11.0544 25.1703 12.6191 25.509H12.6381C14.5888 25.9399 15 26.9439 15 27.7134C15.0025 28.8051 14.164 29.7341 13.0283 29.8978V30.499C13.0283 30.7757 12.7922 31 12.5011 31C12.2099 31 11.9738 30.7757 11.9738 30.499Z" fill="#F1B6B8"/>
</svg>
