<svg width="492" height="384" viewBox="0 0 492 384" fill="none" xmlns="http://www.w3.org/2000/svg">
<g filter="url(#filter0_d)">
<path d="M340.501 151.328L432.712 101.444C420.221 81.77 404.292 64.1464 385.571 49.2893L211.694 99.3063L347.916 25.1938C279.286 -9.58016 195.913 -8.27891 128.59 28.6169C61.2679 65.5128 19.9888 132.527 20 204.908C20 318.081 119.193 322 241.5 322C363.806 322 463 318.081 463 204.908C463.036 176.281 456.573 147.967 444.028 121.798L340.501 151.328Z" fill="#DE5458" fill-opacity="0.1"/>
<path opacity="0.1" d="M246 376C379.653 376 488 368.837 488 360C488 351.163 379.653 344 246 344C112.347 344 4 351.163 4 360C4 368.837 112.347 376 246 376Z" fill="#DE5458"/>
<path d="M290 360L203 358.891L203.254 356.668L207.463 320H283.868L289.487 356.668L289.917 359.446L290 360Z" fill="#2F2E41"/>
<path opacity="0.1" d="M290 359H246.539L203 358.601L203.254 357H289.57L290 359Z" fill="black"/>
<rect x="188" y="357" width="115" height="2" fill="#3F3D56"/>
<path d="M414 98.3045C414.009 96.3763 413.252 94.5234 411.897 93.1536C410.541 91.7837 408.697 91.0091 406.771 91H84.2293C82.3029 91.0091 80.459 91.7837 79.1033 93.1536C77.7475 94.5234 76.991 96.3763 77.0001 98.3045V294H414V98.3045Z" fill="#3F3D56"/>
<path d="M77 291V313.802C77 317.777 80.2366 321 84.2292 321H406.771C410.763 321 414 317.777 414 313.802V291H77Z" fill="#3F3D56"/>
<rect x="90" y="103" width="311" height="176" fill="#2F2E41"/>
<path d="M247.49 314C249.794 314.003 251.971 312.945 253.394 311.133C253.608 310.86 253.803 310.572 253.978 310.271L249.86 309.595L254.314 309.629C255.175 307.75 255.228 305.6 254.46 303.681L248.483 306.781L253.992 302.731C252.582 300.307 249.938 298.871 247.137 299.009C244.336 299.147 241.845 300.835 240.679 303.386C239.513 305.936 239.867 308.925 241.596 311.133C243.016 312.943 245.189 314 247.49 314Z" fill="#DE5458"/>
<path opacity="0.1" d="M256 322L290 357L284.782 322H256Z" fill="black"/>
<rect opacity="0.3" x="106" y="172" width="10" height="3" fill="#DE5458"/>
<rect opacity="0.3" x="380" y="172" width="10" height="3" fill="#DE5458"/>
<rect opacity="0.3" x="106" y="193" width="10" height="3" fill="#DE5458"/>
<rect opacity="0.3" x="106" y="215" width="10" height="3" fill="#DE5458"/>
<rect opacity="0.3" x="106" y="237" width="10" height="3" fill="#DE5458"/>
<g opacity="0.2">
<rect x="115.283" y="173.05" width="2.92279" height="0.1" fill="#F2F2F2"/>
<path fill-rule="evenodd" clip-rule="evenodd" d="M123.953 173.3H129.697V173.05H123.953V173.3ZM141.193 173.3H135.445V173.05H141.193V173.3ZM146.936 173.3H152.685V173.05H146.936V173.3ZM164.176 173.3H158.433V173.05H164.186L164.176 173.3ZM169.924 173.3H175.667V173.05H169.924V173.3ZM187.164 173.3H181.416V173.05H187.164V173.3ZM192.927 173.3H198.655L198.675 173.05H192.927V173.3ZM210.147 173.3H204.403V173.05H210.147V173.3ZM215.895 173.3H221.638V173.05H215.895V173.3ZM233.134 173.3H227.386V173.05H233.134V173.3ZM238.878 173.3H244.626V173.05H238.878V173.3ZM256.117 173.3H250.369V173.05H256.117V173.3ZM261.866 173.3H267.609V173.05H261.866V173.3ZM279.105 173.3H273.357V173.05H279.105V173.3ZM284.848 173.3H290.597V173.05H284.848V173.3ZM302.088 173.3H296.34V173.05H302.088V173.3ZM307.836 173.3H313.58V173.05H307.836V173.3ZM325.076 173.3H319.328V173.05H325.076V173.3ZM330.819 173.3H336.567V173.05H330.819V173.3ZM348.059 173.3H342.311V173.05H348.059V173.3ZM353.807 173.3H359.55V173.05H353.807V173.3ZM365.298 173.3H371.042V173.05H365.298V173.3Z" fill="#F2F2F2"/>
<rect x="376.79" y="173.05" width="2.92279" height="0.1" fill="#F2F2F2"/>
<rect x="115.283" y="173.05" width="2.92279" height="0.1" fill="#F2F2F2"/>
<path fill-rule="evenodd" clip-rule="evenodd" d="M123.953 173.3H129.697V173.05H123.953V173.3ZM141.193 173.3H135.445V173.05H141.193V173.3ZM146.936 173.3H152.685V173.05H146.936V173.3ZM164.176 173.3H158.433V173.05H164.186L164.176 173.3ZM169.924 173.3H175.667V173.05H169.924V173.3ZM187.164 173.3H181.416V173.05H187.164V173.3ZM192.927 173.3H198.655L198.675 173.05H192.927V173.3ZM210.147 173.3H204.403V173.05H210.147V173.3ZM215.895 173.3H221.638V173.05H215.895V173.3ZM233.134 173.3H227.386V173.05H233.134V173.3ZM238.878 173.3H244.626V173.05H238.878V173.3ZM256.117 173.3H250.369V173.05H256.117V173.3ZM261.866 173.3H267.609V173.05H261.866V173.3ZM279.105 173.3H273.357V173.05H279.105V173.3ZM284.848 173.3H290.597V173.05H284.848V173.3ZM302.088 173.3H296.34V173.05H302.088V173.3ZM307.836 173.3H313.58V173.05H307.836V173.3ZM325.076 173.3H319.328V173.05H325.076V173.3ZM330.819 173.3H336.567V173.05H330.819V173.3ZM348.059 173.3H342.311V173.05H348.059V173.3ZM353.807 173.3H359.55V173.05H353.807V173.3ZM365.298 173.3H371.042V173.05H365.298V173.3Z" fill="#F2F2F2"/>
<rect x="376.79" y="173.05" width="2.92279" height="0.1" fill="#F2F2F2"/>
</g>
<rect opacity="0.3" x="106" y="149" width="10" height="3" fill="#DE5458"/>
<rect opacity="0.3" x="380" y="149" width="10" height="3" fill="#DE5458"/>
<g opacity="0.2">
<rect x="115.283" y="151.05" width="2.92279" height="0.1" fill="#F2F2F2"/>
<path fill-rule="evenodd" clip-rule="evenodd" d="M123.953 151.3H129.697V151.05H123.953V151.3ZM141.193 151.3H135.445V151.05H141.193V151.3ZM146.936 151.3H152.685V151.05H146.936V151.3ZM164.176 151.3H158.433V151.05H164.186L164.176 151.3ZM169.924 151.3H175.667V151.05H169.924V151.3ZM187.164 151.3H181.416V151.05H187.164V151.3ZM192.927 151.3H198.655L198.675 151.05H192.927V151.3ZM210.147 151.3H204.403V151.05H210.147V151.3ZM215.895 151.3H221.638V151.05H215.895V151.3ZM233.134 151.3H227.386V151.05H233.134V151.3ZM238.878 151.3H244.626V151.05H238.878V151.3ZM256.117 151.3H250.369V151.05H256.117V151.3ZM261.866 151.3H267.609V151.05H261.866V151.3ZM279.105 151.3H273.357V151.05H279.105V151.3ZM284.848 151.3H290.597V151.05H284.848V151.3ZM302.088 151.3H296.34V151.05H302.088V151.3ZM307.836 151.3H313.58V151.05H307.836V151.3ZM325.076 151.3H319.328V151.05H325.076V151.3ZM330.819 151.3H336.567V151.05H330.819V151.3ZM348.059 151.3H342.311V151.05H348.059V151.3ZM353.807 151.3H359.55V151.05H353.807V151.3ZM365.298 151.3H371.042V151.05H365.298V151.3Z" fill="#F2F2F2"/>
<rect x="376.79" y="151.05" width="2.92279" height="0.1" fill="#F2F2F2"/>
</g>
<rect opacity="0.3" x="380" y="193" width="10" height="3" fill="#DE5458"/>
<g opacity="0.2">
<rect x="115.283" y="196.035" width="2.92279" height="0.1" fill="#F2F2F2"/>
<path fill-rule="evenodd" clip-rule="evenodd" d="M123.953 196.282H129.697V196.032H123.953V196.282ZM141.193 196.282H135.445V196.032H141.193V196.282ZM146.936 196.282H152.685V196.032H146.936V196.282ZM164.176 196.282H158.433V196.032H164.186L164.176 196.282ZM169.924 196.282H175.667V196.032H169.924V196.282ZM187.164 196.282H181.416V196.032H187.164V196.282ZM192.927 196.282H198.655L198.675 196.032H192.927V196.282ZM210.147 196.282H204.403V196.032H210.147V196.282ZM215.895 196.282H221.638V196.032H215.895V196.282ZM233.134 196.282H227.386V196.032H233.134V196.282ZM238.878 196.282H244.626V196.032H238.878V196.282ZM256.117 196.282H250.369V196.032H256.117V196.282ZM261.866 196.282H267.609V196.032H261.866V196.282ZM279.105 196.282H273.357V196.032H279.105V196.282ZM284.848 196.282H290.597V196.032H284.848V196.282ZM302.088 196.282H296.34V196.032H302.088V196.282ZM307.836 196.282H313.58V196.032H307.836V196.282ZM325.076 196.282H319.328V196.032H325.076V196.282ZM330.819 196.282H336.567V196.032H330.819V196.282ZM348.059 196.282H342.311V196.032H348.059V196.282ZM353.807 196.282H359.55V196.032H353.807V196.282ZM365.298 196.282H371.042V196.032H365.298V196.282Z" fill="#F2F2F2"/>
<rect x="376.79" y="196.035" width="2.92279" height="0.1" fill="#F2F2F2"/>
<rect x="115.283" y="196.035" width="2.92279" height="0.1" fill="#F2F2F2"/>
<path fill-rule="evenodd" clip-rule="evenodd" d="M123.953 196.282H129.697V196.032H123.953V196.282ZM141.193 196.282H135.445V196.032H141.193V196.282ZM146.936 196.282H152.685V196.032H146.936V196.282ZM164.176 196.282H158.433V196.032H164.186L164.176 196.282ZM169.924 196.282H175.667V196.032H169.924V196.282ZM187.164 196.282H181.416V196.032H187.164V196.282ZM192.927 196.282H198.655L198.675 196.032H192.927V196.282ZM210.147 196.282H204.403V196.032H210.147V196.282ZM215.895 196.282H221.638V196.032H215.895V196.282ZM233.134 196.282H227.386V196.032H233.134V196.282ZM238.878 196.282H244.626V196.032H238.878V196.282ZM256.117 196.282H250.369V196.032H256.117V196.282ZM261.866 196.282H267.609V196.032H261.866V196.282ZM279.105 196.282H273.357V196.032H279.105V196.282ZM284.848 196.282H290.597V196.032H284.848V196.282ZM302.088 196.282H296.34V196.032H302.088V196.282ZM307.836 196.282H313.58V196.032H307.836V196.282ZM325.076 196.282H319.328V196.032H325.076V196.282ZM330.819 196.282H336.567V196.032H330.819V196.282ZM348.059 196.282H342.311V196.032H348.059V196.282ZM353.807 196.282H359.55V196.032H353.807V196.282ZM365.298 196.282H371.042V196.032H365.298V196.282Z" fill="#F2F2F2"/>
<rect x="376.79" y="196.035" width="2.92279" height="0.1" fill="#F2F2F2"/>
</g>
<rect opacity="0.3" x="380" y="215" width="10" height="3" fill="#DE5458"/>
<g opacity="0.2">
<rect x="115.283" y="217.017" width="2.92279" height="0.1" fill="#F2F2F2"/>
<path fill-rule="evenodd" clip-rule="evenodd" d="M123.953 217.267H129.697V217.017H123.953V217.267ZM141.193 217.267H135.445V217.017H141.193V217.267ZM146.936 217.267H152.685V217.017H146.936V217.267ZM164.176 217.267H158.433V217.017H164.186L164.176 217.267ZM169.924 217.267H175.667V217.017H169.924V217.267ZM187.164 217.267H181.416V217.017H187.164V217.267ZM192.927 217.267H198.655L198.675 217.017H192.927V217.267ZM210.147 217.267H204.403V217.017H210.147V217.267ZM215.895 217.267H221.638V217.017H215.895V217.267ZM233.134 217.267H227.386V217.017H233.134V217.267ZM238.878 217.267H244.626V217.017H238.878V217.267ZM256.117 217.267H250.369V217.017H256.117V217.267ZM261.866 217.267H267.609V217.017H261.866V217.267ZM279.105 217.267H273.357V217.017H279.105V217.267ZM284.848 217.267H290.597V217.017H284.848V217.267ZM302.088 217.267H296.34V217.017H302.088V217.267ZM307.836 217.267H313.58V217.017H307.836V217.267ZM325.076 217.267H319.328V217.017H325.076V217.267ZM330.819 217.267H336.567V217.017H330.819V217.267ZM348.059 217.267H342.311V217.017H348.059V217.267ZM353.807 217.267H359.55V217.017H353.807V217.267ZM365.298 217.267H371.042V217.017H365.298V217.267Z" fill="#F2F2F2"/>
<rect x="376.79" y="217.017" width="2.92279" height="0.1" fill="#F2F2F2"/>
<rect x="115.283" y="217.017" width="2.92279" height="0.1" fill="#F2F2F2"/>
<path fill-rule="evenodd" clip-rule="evenodd" d="M123.953 217.267H129.697V217.017H123.953V217.267ZM141.193 217.267H135.445V217.017H141.193V217.267ZM146.936 217.267H152.685V217.017H146.936V217.267ZM164.176 217.267H158.433V217.017H164.186L164.176 217.267ZM169.924 217.267H175.667V217.017H169.924V217.267ZM187.164 217.267H181.416V217.017H187.164V217.267ZM192.927 217.267H198.655L198.675 217.017H192.927V217.267ZM210.147 217.267H204.403V217.017H210.147V217.267ZM215.895 217.267H221.638V217.017H215.895V217.267ZM233.134 217.267H227.386V217.017H233.134V217.267ZM238.878 217.267H244.626V217.017H238.878V217.267ZM256.117 217.267H250.369V217.017H256.117V217.267ZM261.866 217.267H267.609V217.017H261.866V217.267ZM279.105 217.267H273.357V217.017H279.105V217.267ZM284.848 217.267H290.597V217.017H284.848V217.267ZM302.088 217.267H296.34V217.017H302.088V217.267ZM307.836 217.267H313.58V217.017H307.836V217.267ZM325.076 217.267H319.328V217.017H325.076V217.267ZM330.819 217.267H336.567V217.017H330.819V217.267ZM348.059 217.267H342.311V217.017H348.059V217.267ZM353.807 217.267H359.55V217.017H353.807V217.267ZM365.298 217.267H371.042V217.017H365.298V217.267Z" fill="#F2F2F2"/>
<rect x="376.79" y="217.017" width="2.92279" height="0.1" fill="#F2F2F2"/>
</g>
<rect opacity="0.3" x="380" y="237" width="10" height="3" fill="#DE5458"/>
<g opacity="0.2">
<rect x="115.283" y="238.002" width="2.92279" height="0.1" fill="#F2F2F2"/>
<path fill-rule="evenodd" clip-rule="evenodd" d="M123.953 238.252H129.697V238.002H123.953V238.252ZM141.193 238.252H135.445V238.002H141.193V238.252ZM146.936 238.252H152.685V238.002H146.936V238.252ZM164.176 238.252H158.433V238.002H164.186L164.176 238.252ZM169.924 238.252H175.667V238.002H169.924V238.252ZM187.164 238.252H181.416V238.002H187.164V238.252ZM192.927 238.252H198.655L198.675 238.002H192.927V238.252ZM210.147 238.252H204.403V238.002H210.147V238.252ZM215.895 238.252H221.638V238.002H215.895V238.252ZM233.134 238.252H227.386V238.002H233.134V238.252ZM238.878 238.252H244.626V238.002H238.878V238.252ZM256.117 238.252H250.369V238.002H256.117V238.252ZM261.866 238.252H267.609V238.002H261.866V238.252ZM279.105 238.252H273.357V238.002H279.105V238.252ZM284.848 238.252H290.597V238.002H284.848V238.252ZM302.088 238.252H296.34V238.002H302.088V238.252ZM307.836 238.252H313.58V238.002H307.836V238.252ZM325.076 238.252H319.328V238.002H325.076V238.252ZM330.819 238.252H336.567V238.002H330.819V238.252ZM348.059 238.252H342.311V238.002H348.059V238.252ZM353.807 238.252H359.55V238.002H353.807V238.252ZM365.298 238.252H371.042V238.002H365.298V238.252Z" fill="#F2F2F2"/>
<rect x="376.79" y="238.002" width="2.92279" height="0.1" fill="#F2F2F2"/>
<rect x="115.283" y="238.002" width="2.92279" height="0.1" fill="#F2F2F2"/>
<path fill-rule="evenodd" clip-rule="evenodd" d="M123.953 238.252H129.697V238.002H123.953V238.252ZM141.193 238.252H135.445V238.002H141.193V238.252ZM146.936 238.252H152.685V238.002H146.936V238.252ZM164.176 238.252H158.433V238.002H164.186L164.176 238.252ZM169.924 238.252H175.667V238.002H169.924V238.252ZM187.164 238.252H181.416V238.002H187.164V238.252ZM192.927 238.252H198.655L198.675 238.002H192.927V238.252ZM210.147 238.252H204.403V238.002H210.147V238.252ZM215.895 238.252H221.638V238.002H215.895V238.252ZM233.134 238.252H227.386V238.002H233.134V238.252ZM238.878 238.252H244.626V238.002H238.878V238.252ZM256.117 238.252H250.369V238.002H256.117V238.252ZM261.866 238.252H267.609V238.002H261.866V238.252ZM279.105 238.252H273.357V238.002H279.105V238.252ZM284.848 238.252H290.597V238.002H284.848V238.252ZM302.088 238.252H296.34V238.002H302.088V238.252ZM307.836 238.252H313.58V238.002H307.836V238.252ZM325.076 238.252H319.328V238.002H325.076V238.252ZM330.819 238.252H336.567V238.002H330.819V238.252ZM348.059 238.252H342.311V238.002H348.059V238.252ZM353.807 238.252H359.55V238.002H353.807V238.252ZM365.298 238.252H371.042V238.002H365.298V238.252Z" fill="#F2F2F2"/>
<rect x="376.79" y="238.002" width="2.92279" height="0.1" fill="#F2F2F2"/>
</g>
<path d="M149.5 151V239" stroke="#F2F2F2" stroke-width="0.1"/>
<path d="M185.5 151V239" stroke="#F2F2F2" stroke-width="0.1"/>
<path d="M220.5 151V239" stroke="#F2F2F2" stroke-width="0.1"/>
<path d="M256.5 151V239" stroke="#F2F2F2" stroke-width="0.1"/>
<path d="M291.5 151V239" stroke="#F2F2F2" stroke-width="0.1"/>
<path d="M326.5 151V239" stroke="#F2F2F2" stroke-width="0.1"/>
<path d="M363.5 151V239" stroke="#F2F2F2" stroke-width="0.1"/>
<path opacity="0.3" d="M369.936 144.353L365.861 148.587C365.779 148.676 365.71 148.776 365.656 148.884L363.129 154.078C362.923 154.505 362.475 154.762 362.001 154.725L361.191 154.662C360.71 154.628 360.3 154.297 360.167 153.834L359.386 151.138C359.246 150.654 358.808 150.316 358.303 150.304C357.798 150.292 357.343 150.608 357.18 151.084L355.868 154.92C355.708 155.389 355.266 155.705 354.77 155.703H349.758C349.19 155.701 348.707 155.289 348.616 154.73L347.201 145.896C347.124 145.4 346.735 145.011 346.238 144.933C345.741 144.855 345.25 145.107 345.025 145.555L337.769 159.841C337.617 160.14 337.343 160.359 337.017 160.44C336.691 160.521 336.345 160.457 336.07 160.264L331.757 157.227C331.269 156.886 330.603 156.965 330.21 157.412L328.575 159.296C328.527 159.351 328.484 159.411 328.448 159.476L324.086 167.005C323.86 167.4 323.421 167.623 322.968 167.575L320.309 167.312C320.123 167.294 319.936 167.321 319.762 167.39L317.381 168.339C316.809 168.554 316.167 168.288 315.917 167.731L315.395 166.538C315.202 166.101 314.761 165.827 314.282 165.847L311.56 165.973C311.218 165.988 310.901 166.154 310.696 166.426L309.925 167.429C309.666 167.766 309.243 167.934 308.823 167.867C308.403 167.8 308.054 167.508 307.914 167.108L306.938 164.358C306.816 164.01 306.536 163.742 306.183 163.636C305.83 163.529 305.447 163.596 305.152 163.817L300.517 167.283L295.393 171.405C295.035 171.692 294.542 171.742 294.134 171.532L290.157 169.473C289.944 169.364 289.702 169.323 289.464 169.356L281.408 170.481C280.929 170.545 280.541 170.898 280.432 171.366L279.002 177.563C278.911 177.956 278.621 178.273 278.237 178.399C277.853 178.526 277.431 178.443 277.123 178.181C276.852 177.95 276.489 177.856 276.14 177.927C275.79 177.997 275.493 178.223 275.332 178.541L274.234 180.736C274.067 181.065 273.754 181.296 273.39 181.359L270.897 181.773C270.736 181.801 270.583 181.862 270.448 181.953L266.519 184.562C266.331 184.689 266.108 184.756 265.88 184.756H264.041C263.578 184.757 263.16 184.484 262.977 184.06L262.489 182.897C262.363 182.612 262.128 182.39 261.835 182.281C261.543 182.172 261.219 182.185 260.937 182.318L256.672 184.309C256.323 184.472 255.915 184.452 255.584 184.255L253.632 183.082C253.452 182.975 253.247 182.917 253.037 182.917H248.728C248.5 182.917 248.278 182.985 248.089 183.111L243.79 185.959C243.453 186.182 243.023 186.213 242.658 186.041L240.706 185.121C240.238 184.904 239.683 185.021 239.344 185.409L238.417 186.465C238.171 186.749 237.801 186.895 237.427 186.856C237.052 186.817 236.721 186.599 236.538 186.27L236.26 185.783C236.108 185.512 235.852 185.313 235.551 185.232C235.249 185.152 234.928 185.196 234.66 185.355L231.278 187.356C230.921 187.56 230.483 187.56 230.126 187.356L228.731 186.582C228.411 186.402 228.025 186.386 227.691 186.538L226.364 187.141C226.062 187.276 225.717 187.277 225.415 187.143C225.112 187.01 224.881 186.754 224.778 186.441L223.919 183.89C223.769 183.409 223.321 183.083 222.817 183.087H221.567C221.371 183.088 221.177 183.037 221.006 182.941L216.209 180.317C215.811 180.102 215.323 180.139 214.96 180.41L211.442 183.038C211.242 183.188 210.999 183.268 210.749 183.267H206.323C206.095 183.267 205.873 183.335 205.684 183.462L204.854 184.012C204.578 184.196 204.236 184.254 203.914 184.169C203.593 184.084 203.324 183.865 203.176 183.569L202.975 183.175C202.782 182.781 202.38 182.532 201.941 182.532H199.721C199.364 182.533 199.027 182.698 198.808 182.98L197.432 184.737C197.201 185.033 196.839 185.198 196.464 185.179C196.088 185.161 195.745 184.961 195.544 184.644L195.153 184.036C194.818 183.506 194.119 183.341 193.582 183.666L192.44 184.348C192.043 184.584 191.542 184.563 191.167 184.294L186.565 180.97C186.483 180.912 186.394 180.863 186.301 180.824L182.705 179.446C182.123 179.235 181.478 179.518 181.241 180.089L178.738 186.173C178.702 186.258 178.677 186.348 178.665 186.441L177.855 191.921C177.819 192.153 177.713 192.369 177.552 192.539L175.839 194.374C175.474 194.759 174.894 194.849 174.429 194.593L171.457 192.948C171.158 192.781 170.8 192.755 170.479 192.877C170.159 192.999 169.909 193.257 169.798 193.581L167.915 199.076C167.872 199.196 167.85 199.323 167.851 199.451V202.916C167.85 203.376 167.576 203.79 167.153 203.973L164.133 205.306C163.792 205.453 163.402 205.427 163.084 205.238L160.81 203.904C160.583 203.772 160.318 203.721 160.058 203.758L156.071 204.328C155.605 204.394 155.145 204.171 154.91 203.763L154.237 202.615C154.091 202.367 153.858 202.183 153.583 202.099L151.772 201.534C151.341 201.397 150.87 201.525 150.567 201.86L148.054 204.644C147.856 204.863 147.582 204.998 147.288 205.024L143.579 205.335C143.407 205.345 143.24 205.395 143.091 205.481L136.626 209.19C136.213 209.424 135.699 209.384 135.328 209.088L133.493 207.628C133.287 207.465 133.033 207.376 132.771 207.375H125.822C125.47 207.376 125.138 207.216 124.919 206.942L123.167 204.761C122.955 204.497 122.637 204.34 122.298 204.331C121.959 204.321 121.633 204.461 121.406 204.712L119.298 207.049C119.107 207.26 119.001 207.534 119 207.818V236.846C119 237.484 119.518 238 120.156 238H370.843C371.151 238 371.446 237.878 371.663 237.66C371.88 237.443 372.001 237.148 372 236.842L371.932 145.175C371.939 144.7 371.654 144.269 371.214 144.088C370.774 143.906 370.267 144.011 369.936 144.353Z" fill="#DE5458"/>
<path opacity="0.3" d="M369.711 182.241L365.934 184.784C365.802 184.874 365.685 184.985 365.588 185.114L363.241 188.243C362.952 188.619 362.501 188.832 362.03 188.815L361.264 188.775C360.728 188.748 360.252 188.421 360.03 187.928L359.542 186.878C359.319 186.375 358.832 186.044 358.287 186.026C357.741 186.009 357.234 186.307 356.98 186.794L356.004 188.682C355.755 189.153 355.269 189.447 354.74 189.445H349.899C349.242 189.448 348.669 188.996 348.513 188.351L347.351 183.655C347.22 183.121 346.799 182.709 346.266 182.593C345.733 182.477 345.182 182.677 344.843 183.108L337.865 192.018C337.46 192.539 336.754 192.712 336.157 192.437L331.672 190.392C331.194 190.165 330.631 190.224 330.208 190.544L328.603 191.742C328.526 191.8 328.456 191.866 328.393 191.939L324.157 196.675C323.869 197.009 323.444 197.19 323.005 197.167L320.239 196.99C320.088 196.981 319.937 196.994 319.79 197.029L317.296 197.675C316.713 197.829 316.098 197.596 315.759 197.093L315.476 196.67C315.201 196.265 314.741 196.03 314.256 196.044L311.474 196.128C311.153 196.133 310.844 196.252 310.601 196.463L309.918 197.039C309.59 197.317 309.156 197.432 308.736 197.353C308.316 197.274 307.952 197.008 307.746 196.63L307.024 195.31C306.658 194.639 305.838 194.373 305.155 194.703L300.475 196.975L295.297 199.676C294.956 199.853 294.558 199.883 294.194 199.759L290.071 198.38C289.885 198.318 289.69 198.295 289.495 198.311L281.511 198.996C280.959 199.053 280.487 199.422 280.291 199.947L279.135 203.209C278.994 203.606 278.688 203.92 278.297 204.07C277.907 204.219 277.471 204.189 277.105 203.988L277.056 203.963C276.444 203.62 275.675 203.779 275.246 204.337L274.338 205.51C274.097 205.816 273.746 206.012 273.362 206.057L270.863 206.328C270.723 206.343 270.584 206.377 270.454 206.432L266.496 208.142C266.318 208.216 266.127 208.254 265.935 208.255H264.032C263.559 208.255 263.117 208.019 262.851 207.624L262.577 207.22C262.226 206.702 261.582 206.473 260.986 206.653L256.551 208.009C256.246 208.101 255.92 208.089 255.623 207.974L253.564 207.176C253.409 207.114 253.243 207.081 253.076 207.077H248.655C248.463 207.077 248.274 207.117 248.099 207.196L243.707 209.078C243.398 209.213 243.052 209.232 242.731 209.132L240.559 208.477C240.13 208.348 239.667 208.428 239.305 208.694L238.353 209.398C237.756 209.839 236.924 209.748 236.436 209.186L236.294 209.024C235.901 208.571 235.271 208.412 234.713 208.625L231.175 209.99C230.86 210.106 230.514 210.106 230.199 209.99L228.647 209.428C228.364 209.329 228.057 209.32 227.769 209.403L226.305 209.832C225.643 210.025 224.94 209.714 224.631 209.093L224.084 207.984C223.841 207.496 223.347 207.187 222.806 207.186H221.537C221.371 207.189 221.206 207.162 221.049 207.107L216.125 205.362C215.768 205.233 215.374 205.255 215.032 205.422L211.436 207.166C211.242 207.259 211.03 207.308 210.816 207.309H206.273C206.08 207.31 205.89 207.348 205.711 207.422L204.784 207.826C204.188 208.082 203.496 207.902 203.096 207.388C202.826 207.036 202.409 206.83 201.969 206.831H199.675C199.344 206.83 199.024 206.945 198.767 207.156L197.435 208.26C196.867 208.735 196.034 208.692 195.517 208.161L195.215 207.856C194.815 207.45 194.216 207.32 193.687 207.526L192.36 208.043C191.997 208.18 191.595 208.166 191.242 208.004L186.572 205.816C186.49 205.776 186.403 205.746 186.314 205.727L182.649 204.815C182.056 204.666 181.435 204.916 181.107 205.436L178.804 209.063C178.715 209.203 178.651 209.356 178.613 209.517L177.915 212.597C177.832 212.948 177.623 213.257 177.33 213.464L175.807 214.518C175.431 214.78 174.953 214.842 174.524 214.686L171.391 213.562C170.713 213.321 169.963 213.624 169.639 214.272L167.99 217.386C167.881 217.596 167.824 217.83 167.824 218.066V219.471C167.821 220.119 167.393 220.686 166.775 220.861L164.032 221.629C163.741 221.712 163.431 221.699 163.149 221.59L160.758 220.678C160.556 220.6 160.339 220.569 160.123 220.589L156 220.969C155.554 221.013 155.114 220.841 154.814 220.506L154.326 219.959C154.123 219.729 153.85 219.573 153.55 219.515L151.671 219.131C151.283 219.057 150.882 219.144 150.559 219.372L148.084 221.151C147.863 221.308 147.603 221.401 147.333 221.417L143.541 221.619C143.398 221.628 143.256 221.658 143.121 221.708L136.538 224.172C136.166 224.315 135.75 224.29 135.397 224.103L133.493 223.117C133.292 223.014 133.07 222.96 132.844 222.96H125.768C125.442 222.96 125.125 222.847 124.871 222.639L123.158 221.255C122.659 220.851 121.956 220.831 121.435 221.205L119.6 222.526C119.224 222.798 119 223.237 119 223.704V237.556C119 238.354 119.64 239 120.43 239H370.57C371.36 239 372 238.354 372 237.556L371.932 183.463C371.939 182.928 371.652 182.432 371.186 182.176C370.721 181.92 370.153 181.945 369.711 182.241Z" fill="#DE5458"/>
<path d="M371.5 185C373.433 185 375 183.433 375 181.5C375 179.567 373.433 178 371.5 178C369.567 178 368 179.567 368 181.5C368 183.433 369.567 185 371.5 185Z" fill="#DE5458"/>
<path opacity="0.3" d="M370.516 216.052L365.876 217.61C365.787 217.641 365.701 217.682 365.622 217.733L363.074 219.428C362.889 219.549 362.671 219.611 362.45 219.604L360.864 219.565C360.566 219.559 360.283 219.429 360.083 219.206L359.107 218.126C358.911 217.908 358.636 217.778 358.344 217.766C358.052 217.754 357.768 217.861 357.555 218.062L355.911 219.614C355.711 219.806 355.445 219.914 355.169 219.914H349.469C349.054 219.917 348.675 219.68 348.493 219.305L347.19 216.686C347.053 216.41 346.806 216.205 346.51 216.122C346.215 216.038 345.898 216.085 345.638 216.249L337.571 221.393C337.327 221.547 337.033 221.598 336.752 221.535L331.227 220.282C331.023 220.234 330.809 220.247 330.613 220.322L328.597 221.073C328.544 221.09 328.493 221.113 328.446 221.142L323.99 223.628C323.818 223.722 323.625 223.77 323.429 223.766L320.13 223.657C320.073 223.652 320.016 223.652 319.959 223.657L316.787 224.065C316.511 224.099 316.232 224.027 316.007 223.864L315.362 223.372C315.172 223.231 314.94 223.157 314.704 223.161L311.224 223.21C311.085 223.21 310.947 223.239 310.819 223.294L309.258 223.957C308.867 224.12 308.419 224.041 308.106 223.756L306.827 222.616C306.563 222.376 306.198 222.282 305.851 222.365L300.513 223.662L295.022 225.092C294.875 225.124 294.721 225.124 294.574 225.092L289.938 224.316C289.863 224.311 289.788 224.311 289.713 224.316L281.139 224.704C280.806 224.719 280.498 224.887 280.304 225.161L279.011 226.954C278.747 227.327 278.279 227.494 277.84 227.371L276.459 226.988C276.161 226.909 275.845 226.959 275.585 227.126L274.204 228.015C274.045 228.114 273.864 228.172 273.677 228.182L270.749 228.344C270.694 228.339 270.639 228.339 270.583 228.344L266.357 229.253C266.282 229.269 266.205 229.277 266.128 229.278H263.649C263.419 229.278 263.195 229.204 263.01 229.066L262.365 228.575C262.136 228.403 261.848 228.33 261.565 228.374L256.29 229.17C256.169 229.189 256.045 229.189 255.924 229.17L253.445 228.678C253.377 228.671 253.308 228.671 253.24 228.678H248.482C248.407 228.671 248.332 228.671 248.257 228.678L243.431 229.71C243.302 229.735 243.169 229.735 243.04 229.71L240.166 229.273C239.985 229.248 239.801 229.268 239.629 229.332L237.785 230.01C237.484 230.123 237.149 230.094 236.872 229.931L235.999 229.44C235.777 229.308 235.515 229.263 235.262 229.312L230.87 230.152C230.739 230.177 230.605 230.177 230.474 230.152L228.361 229.774C228.246 229.757 228.13 229.757 228.015 229.774L225.682 230.113C225.344 230.165 225.002 230.052 224.76 229.808L223.989 229.066C223.783 228.863 223.506 228.749 223.218 228.747H221.368C221.307 228.752 221.245 228.752 221.183 228.747L215.786 227.794C215.639 227.762 215.488 227.762 215.341 227.794L211.262 228.777C211.179 228.796 211.093 228.806 211.008 228.806H206.094C206.019 228.798 205.944 228.798 205.869 228.806L204.205 229.165C203.925 229.243 203.625 229.208 203.371 229.066L202.912 228.767C202.737 228.655 202.534 228.595 202.326 228.595H199.354C199.214 228.595 199.074 228.624 198.945 228.678L196.866 229.533C196.576 229.655 196.247 229.642 195.968 229.499L194.865 228.939C194.651 228.831 194.407 228.796 194.172 228.84L191.995 229.263C191.847 229.295 191.694 229.295 191.546 229.263L186.501 228.084H186.388L182.099 227.548C181.813 227.516 181.526 227.597 181.298 227.774L178.858 229.68C178.722 229.787 178.613 229.925 178.541 230.083L177.995 231.307C177.87 231.578 177.641 231.788 177.36 231.886L175.486 232.53C175.313 232.593 175.126 232.609 174.945 232.574L170.777 231.827C170.44 231.769 170.095 231.872 169.845 232.107L168.191 233.665C167.971 233.872 167.847 234.162 167.849 234.466C167.849 235.011 167.449 235.473 166.912 235.546L163.784 235.984C163.668 236.003 163.549 236.003 163.433 235.984L160.602 235.443C160.518 235.433 160.433 235.433 160.348 235.443L155.62 235.659C155.421 235.667 155.224 235.621 155.049 235.527L154.219 235.07C154.092 234.996 153.95 234.951 153.804 234.937L151.32 234.687C151.155 234.669 150.989 234.69 150.832 234.746L147.904 235.792C147.796 235.831 147.683 235.852 147.568 235.856L143.405 235.969C143.348 235.964 143.291 235.964 143.234 235.969L136.183 237.281C136.03 237.312 135.872 237.312 135.719 237.281L133.318 236.662C133.228 236.64 133.137 236.629 133.045 236.627H125.476C125.337 236.629 125.199 236.602 125.071 236.549L122.699 235.595C122.451 235.5 122.176 235.5 121.928 235.595L119.722 236.386C119.289 236.539 118.999 236.951 119 237.413V237.904C118.999 238.195 119.112 238.473 119.316 238.679C119.519 238.884 119.795 239 120.083 239H370.917C371.205 239 371.481 238.884 371.684 238.679C371.888 238.473 372.001 238.195 372 237.904L371.937 217.138C371.95 216.781 371.79 216.439 371.507 216.223C371.224 216.007 370.855 215.943 370.516 216.052Z" fill="#DE5458"/>
<path d="M183.5 209C185.433 209 187 207.433 187 205.5C187 203.567 185.433 202 183.5 202C181.567 202 180 203.567 180 205.5C180 207.433 181.567 209 183.5 209Z" fill="#DE5458"/>
<path d="M347.5 187C349.433 187 351 185.433 351 183.5C351 181.567 349.433 180 347.5 180C345.567 180 344 181.567 344 183.5C344 185.433 345.567 187 347.5 187Z" fill="#DE5458"/>
<path d="M262.5 210C264.433 210 266 208.433 266 206.5C266 204.567 264.433 203 262.5 203C260.567 203 259 204.567 259 206.5C259 208.433 260.567 210 262.5 210Z" fill="#DE5458"/>
<path d="M307.5 198C309.433 198 311 196.433 311 194.5C311 192.567 309.433 191 307.5 191C305.567 191 304 192.567 304 194.5C304 196.433 305.567 198 307.5 198Z" fill="#DE5458"/>
<path d="M372 183.395C371.998 182.88 371.707 182.408 371.244 182.165C370.78 181.923 370.217 181.949 369.779 182.234L366.001 184.7C365.868 184.788 365.751 184.896 365.654 185.02L363.307 188.056C363.018 188.42 362.567 188.627 362.096 188.61L361.33 188.572C360.793 188.546 360.317 188.228 360.095 187.75L359.607 186.732C359.384 186.244 358.897 185.923 358.351 185.906C357.806 185.888 357.298 186.177 357.044 186.65L356.068 188.481C355.819 188.939 355.333 189.224 354.803 189.222H349.961C349.304 189.225 348.731 188.786 348.575 188.161L347.413 183.605C347.281 183.087 346.86 182.688 346.327 182.575C345.794 182.463 345.243 182.656 344.904 183.075L337.924 191.717C337.519 192.223 336.812 192.391 336.216 192.123L331.73 190.14C331.251 189.92 330.688 189.977 330.265 190.288L328.659 191.449C328.583 191.505 328.512 191.57 328.449 191.641L324.213 196.234C323.924 196.558 323.499 196.734 323.061 196.712L320.293 196.54C320.142 196.531 319.991 196.544 319.844 196.578L317.35 197.204C316.767 197.353 316.151 197.128 315.812 196.64L315.529 196.229C315.254 195.837 314.794 195.609 314.309 195.622L311.526 195.704C311.205 195.709 310.896 195.824 310.652 196.029L309.969 196.588C309.641 196.857 309.208 196.969 308.787 196.892C308.367 196.815 308.003 196.558 307.797 196.191L307.075 194.91C306.709 194.26 305.889 194.002 305.205 194.322L300.524 196.526L295.345 199.145C295.003 199.317 294.606 199.346 294.242 199.226L290.117 197.888C289.932 197.828 289.736 197.806 289.541 197.821L281.555 198.49C281.003 198.546 280.53 198.904 280.335 199.413L279.178 202.577C279.037 202.962 278.731 203.267 278.34 203.412C277.95 203.557 277.514 203.528 277.148 203.332L277.099 203.308C276.486 202.976 275.717 203.13 275.288 203.672L274.38 204.809C274.139 205.106 273.788 205.296 273.404 205.34L270.904 205.603C270.764 205.617 270.625 205.651 270.494 205.703L266.536 207.362C266.358 207.434 266.167 207.471 265.974 207.472H264.071C263.598 207.472 263.156 207.243 262.889 206.86L262.616 206.468C262.264 205.965 261.621 205.743 261.025 205.918L256.588 207.233C256.283 207.323 255.957 207.311 255.66 207.199L253.6 206.425C253.445 206.365 253.28 206.333 253.112 206.329H248.69C248.498 206.329 248.309 206.368 248.133 206.444L243.74 208.27C243.432 208.401 243.086 208.419 242.764 208.323L240.592 207.687C240.163 207.562 239.699 207.639 239.337 207.897L238.386 208.581C237.788 209.009 236.956 208.92 236.467 208.375L236.326 208.218C235.933 207.778 235.302 207.624 234.744 207.83L231.205 209.154C230.89 209.267 230.544 209.267 230.229 209.154L228.677 208.609C228.393 208.514 228.087 208.505 227.798 208.586L226.334 209.001C225.672 209.188 224.969 208.887 224.66 208.284L224.113 207.209C223.87 206.735 223.375 206.436 222.834 206.435H221.565C221.399 206.437 221.234 206.411 221.077 206.358L216.151 204.666C215.794 204.541 215.4 204.561 215.058 204.723L211.461 206.415C211.267 206.506 211.055 206.553 210.841 206.554H206.296C206.104 206.555 205.913 206.592 205.735 206.664L204.807 207.056C204.211 207.304 203.519 207.129 203.119 206.631V206.631C202.848 206.289 202.432 206.09 201.991 206.09H199.697C199.366 206.09 199.045 206.201 198.789 206.406L197.456 207.477C196.888 207.937 196.055 207.896 195.538 207.381L195.235 207.085C194.836 206.691 194.237 206.565 193.708 206.764L192.38 207.266C192.017 207.399 191.615 207.385 191.262 207.228L186.591 205.106C186.508 205.067 186.421 205.038 186.332 205.02L182.666 204.135C182.073 203.99 181.452 204.233 181.124 204.738L178.82 208.256C178.732 208.391 178.667 208.54 178.629 208.696L177.931 211.683C177.848 212.024 177.639 212.323 177.346 212.524L175.823 213.547C175.447 213.801 174.968 213.862 174.539 213.71L171.405 212.62C170.727 212.385 169.977 212.68 169.653 213.308L168.003 216.329C167.894 216.533 167.837 216.759 167.837 216.989V218.351C167.834 218.98 167.406 219.53 166.787 219.699L164.044 220.445C163.753 220.525 163.443 220.512 163.161 220.406L160.769 219.522C160.567 219.446 160.35 219.417 160.134 219.436L156.01 219.804C155.564 219.847 155.124 219.68 154.823 219.355L154.335 218.824C154.132 218.601 153.859 218.45 153.559 218.394L151.68 218.021C151.292 217.949 150.891 218.034 150.567 218.255L148.092 219.981C147.871 220.133 147.611 220.223 147.341 220.239L143.548 220.435C143.404 220.444 143.263 220.473 143.128 220.521L136.543 222.911C136.17 223.05 135.754 223.025 135.401 222.844L133.497 221.888C133.296 221.788 133.074 221.735 132.848 221.735H125.77C125.443 221.735 125.126 221.626 124.872 221.425L123.159 220.081C122.66 219.69 121.956 219.671 121.436 220.034L119.6 221.315C119.224 221.578 119 222.004 119 222.457" stroke="#DE5458"/>
<rect opacity="0.2" x="106" y="258.943" width="285" height="0.112952" fill="#F2F2F2"/>
<path opacity="0.3" d="M150 261C151.105 261 152 260.105 152 259C152 257.895 151.105 257 150 257C148.895 257 148 257.895 148 259C148 260.105 148.895 261 150 261Z" fill="#DE5458"/>
<path opacity="0.3" d="M185 261C186.105 261 187 260.105 187 259C187 257.895 186.105 257 185 257C183.895 257 183 257.895 183 259C183 260.105 183.895 261 185 261Z" fill="#DE5458"/>
<path opacity="0.3" d="M221 261C222.105 261 223 260.105 223 259C223 257.895 222.105 257 221 257C219.895 257 219 257.895 219 259C219 260.105 219.895 261 221 261Z" fill="#DE5458"/>
<path opacity="0.3" d="M256 261C257.105 261 258 260.105 258 259C258 257.895 257.105 257 256 257C254.895 257 254 257.895 254 259C254 260.105 254.895 261 256 261Z" fill="#DE5458"/>
<path opacity="0.3" d="M291 261C292.105 261 293 260.105 293 259C293 257.895 292.105 257 291 257C289.895 257 289 257.895 289 259C289 260.105 289.895 261 291 261Z" fill="#DE5458"/>
<path opacity="0.3" d="M327 261C328.105 261 329 260.105 329 259C329 257.895 328.105 257 327 257C325.895 257 325 257.895 325 259C325 260.105 325.895 261 327 261Z" fill="#DE5458"/>
<path opacity="0.3" d="M364 261C365.105 261 366 260.105 366 259C366 257.895 365.105 257 364 257C362.895 257 362 257.895 362 259C362 260.105 362.895 261 364 261Z" fill="#DE5458"/>
<path fill-rule="evenodd" clip-rule="evenodd" d="M416.234 232.226C416.928 227.553 421.168 216.647 421.168 216.647C421.242 216.326 421.326 216.004 421.419 215.683C424.427 205.333 428.591 204.433 428.591 204.433L443.506 201.219C443.381 201.297 443.272 201.399 443.185 201.518C443.264 201.525 443.342 201.537 443.42 201.553C444.103 200.746 444.554 199.769 444.726 198.725C444.755 198.571 444.781 198.404 444.8 198.246C442.633 196.131 441.483 193.182 441.647 190.156C441.811 187.131 443.271 184.323 445.654 182.455C445.811 182.333 445.975 182.214 446.132 182.101C445.429 181.352 445.407 180.311 445.933 179.27C447.108 176.827 449.664 175.281 452.29 174.526C454.296 173.95 456.463 173.764 458.46 174.394C459.346 174.675 460.172 175.106 460.998 175.537L460.998 175.537C461.228 175.658 461.458 175.778 461.69 175.895C462.097 176.098 462.513 176.293 462.93 176.488L462.93 176.488C464.542 177.243 466.167 178.004 467.343 179.299C467.69 179.678 468.011 180.163 467.908 180.665C467.857 180.915 467.706 181.128 467.556 181.341L467.556 181.341C467.482 181.445 467.409 181.549 467.347 181.658C466.92 182.4 467.026 183.336 467.318 184.146C467.429 184.455 467.561 184.757 467.692 185.057L467.692 185.057C467.904 185.542 468.114 186.025 468.239 186.537C468.441 187.366 468.364 188.343 467.741 188.938C467.443 189.169 467.132 189.383 466.81 189.581C466.47 189.872 466.17 190.208 465.921 190.58C465.33 191.373 464.742 192.169 464.155 192.968C463.328 194.028 462.588 195.153 461.944 196.334C461.818 196.582 461.7 196.834 461.583 197.087C461.289 197.719 460.995 198.349 460.576 198.905C460.404 199.132 460.207 199.339 459.988 199.522L460.162 199.455C459.646 199.98 458.936 200.27 458.2 200.255H458.11C457.976 200.252 457.848 200.199 457.751 200.107V200.429C457.715 201.576 457.722 202.797 457.802 203.945L457.94 203.874C458.358 203.666 458.859 203.719 459.224 204.009L472.955 215.04C472.955 215.04 475.941 219.128 475.523 226.187L477.931 236.771C477.931 236.771 480.939 245.751 478.625 252.164C476.31 258.576 474.968 262.243 474.968 262.243C474.968 262.243 474.043 269.53 472.653 270.124C471.263 270.719 470.663 271.04 470.663 271.04L470.387 272.782C470.387 272.782 470.294 272.953 470.13 273.239C469.119 275 465.372 281.216 463.196 280.551C462.922 282.239 462.803 283.949 462.842 285.658L460.688 300.138C460.688 300.138 459.186 304.075 459.279 306.139C459.372 308.202 457.526 311.143 457.526 311.143C458.648 313.199 458.977 315.595 458.451 317.877C457.571 321.734 456.46 339.502 456.46 339.502L454.855 343.809L454.9 348.858C455.032 349.682 455.375 350.457 455.895 351.108C456.24 351.483 456.462 351.878 456.697 352.295C457.169 353.134 457.69 354.061 459.366 355.094C459.737 355.322 460.088 355.53 460.416 355.725C462.309 356.845 463.462 357.528 463.462 359.272C463.465 359.557 463.491 359.842 463.539 360.124C463.554 360.218 463.569 360.309 463.584 360.398C463.807 361.729 463.931 362.472 459.61 362.881C454.194 363.396 450.582 359.86 450.582 359.86C450.582 359.86 449.786 358.414 446.036 357.829C446.036 357.829 444.752 357.761 444.685 356.627C444.659 356.235 444.665 355.486 444.685 354.66C444.746 353.088 444.896 351.253 445.095 351.163C445.346 351.05 445.782 349.469 445.933 348.897H444.89C444.89 348.897 443.927 341.61 444.89 336.892C445.853 332.173 444.983 328.828 444.983 328.828L445.169 316.366C445.169 316.366 446.453 314.991 445.445 312.561C444.437 310.131 445.445 298.129 445.445 298.129C445.445 298.129 445.073 293.822 444.01 292.813C442.965 291.82 443.927 286.671 444.007 286.244L444.01 286.227L442.116 292.588C442.116 292.588 441.285 305.232 439.522 307.521L439.015 313.249C439.015 313.249 435.407 318.52 436.1 321.358C436.793 324.196 435.358 334.462 435.358 334.462V344.956C435.358 344.956 436.98 349.17 434.716 350.684L433.753 350.645C433.919 350.8 434.066 350.995 434.221 351.202C434.365 351.394 434.516 351.595 434.697 351.783C435.13 352.23 435.378 353.93 435.516 355.393C435.631 356.63 435.67 357.694 435.67 357.694C435.67 357.694 434.707 359.237 432.893 359.343C431.079 359.449 425.101 364 425.101 364C425.101 364 419.197 364 417.669 363.679L417.579 363.656C417.089 363.502 416.676 363.165 416.427 362.714C416.121 362.192 416.022 361.574 416.151 360.982C416.34 360.079 417.056 359.089 418.642 358.247C422.587 356.164 423.175 354.213 423.175 354.213L425.766 350.321H425.397C425.397 350.321 425.624 346.197 422.806 341.568L422.989 321.181C422.989 321.181 421.833 314.171 423.82 310.365C423.82 310.365 423.984 306.335 422.655 305.097C421.326 303.86 424.424 291.354 424.424 291.354C424.424 291.354 425.066 284.639 425.82 278.513C422.697 281.48 419.457 270.799 418.912 268.9H418.831L418.867 268.761C418.861 268.739 418.856 268.72 418.852 268.703C418.848 268.687 418.844 268.674 418.841 268.663C418.835 268.638 418.831 268.626 418.831 268.626C418.831 268.626 419.525 266.158 419.018 266.659C418.51 267.161 417.258 265.284 417.258 265.284C417.258 265.284 417.444 255.066 415.268 249.917C413.091 244.768 416.234 232.226 416.234 232.226ZM425.544 238.728L425.528 238.699C425.207 244.938 425.589 258.251 425.589 258.251C425.589 258.251 426.019 259.958 426.478 261.967L426.799 249.319L427.121 237.404L425.544 238.728ZM465.388 256.969C463.815 254.127 465.388 234.428 465.388 234.428C466.499 233.682 467.424 237.539 467.424 237.539C467.424 237.539 466.701 238.558 467.802 240.911C468.848 243.144 468.776 246.031 468.766 246.435C468.766 246.456 468.766 246.471 468.766 246.478C468.766 246.498 468.732 246.644 468.675 246.885C468.355 248.257 467.314 252.717 467.748 254.587C468.143 256.287 467.042 259.495 466.522 260.861C466.21 259.219 465.835 257.779 465.388 256.969Z" fill="url(#paint0_linear)"/>
<path d="M460.761 278.111C462.202 283.725 467.931 275.236 469.237 273.199C469.406 272.933 469.5 272.778 469.5 272.778L468.879 270.196L465.596 269C465.076 269.241 464.584 269.525 464.125 269.849C462.327 271.103 459.651 273.762 460.761 278.111Z" fill="#FBBEBE"/>
<path d="M419.5 269.431C419.5 269.431 419.5 269.473 419.535 269.556C419.535 269.592 419.561 269.64 419.577 269.69C420.114 271.434 423.298 281.251 426.373 278.525C429.737 275.549 428.103 268.67 428.103 268.67H428.081L421.005 268L419.603 269.333L419.5 269.431Z" fill="#FBBEBE"/>
<path d="M423.156 320.783L422.975 340.984C425.755 345.569 425.526 349.641 425.526 349.641L434.687 350C436.922 348.503 435.331 344.331 435.331 344.331V333.93C435.331 333.93 436.745 323.769 436.062 320.953C435.379 318.138 438.932 312.937 438.932 312.937L439.434 307.265C441.167 304.998 441.989 292.478 441.989 292.478L443.847 286.155C443.795 286.427 442.829 291.705 443.847 292.676C444.865 293.648 445.261 297.938 445.261 297.938C445.261 297.938 444.259 309.827 445.261 312.229C446.263 314.63 444.99 315.996 444.99 315.996L444.807 328.338C444.807 328.338 445.673 331.65 444.717 336.322C443.76 340.993 444.717 348.211 444.717 348.211H454.544L454.499 343.174L456.09 338.909C456.09 338.909 457.185 321.306 458.051 317.494C458.57 315.234 458.247 312.865 457.143 310.824C457.143 310.824 458.963 307.923 458.873 305.88C458.783 303.838 460.277 299.942 460.277 299.942L462.397 285.606C462.338 282.847 462.692 280.095 463.447 277.44C464.677 273.355 466.5 268 466.5 268L464.442 268.183L454.057 269.103C454.057 269.103 428.808 267.413 427.678 268.818C427.439 269.277 427.278 269.772 427.201 270.283C426.067 275.352 424.57 291.233 424.57 291.233C424.57 291.233 421.516 303.62 422.827 304.845C424.138 306.069 423.977 310.058 423.977 310.058C422.012 313.826 423.156 320.783 423.156 320.783Z" fill="#3F3D56"/>
<path d="M444.516 355.697C444.588 356.833 445.867 356.901 445.867 356.901C449.616 357.483 450.414 358.927 450.414 358.927C450.414 358.927 454.012 362.463 459.439 361.949C464.051 361.509 463.603 360.697 463.364 359.192C463.317 358.912 463.292 358.628 463.289 358.344C463.289 356.283 461.692 355.697 459.193 354.138C456.694 352.578 456.763 351.287 455.723 350.154C454.683 349.022 454.575 346.825 454.575 346.825C453.397 344.796 450.411 347.148 450.411 347.148C450.27 347.867 445.831 347.766 445.831 347.766C445.831 347.766 445.242 350.103 444.938 350.239C444.739 350.329 444.588 352.161 444.529 353.733C444.497 354.558 444.49 355.306 444.516 355.697Z" fill="#65617D"/>
<path opacity="0.1" d="M444.516 355.896C444.588 356.996 445.867 357.062 445.867 357.062C449.616 357.626 450.414 359.023 450.414 359.023C450.414 359.023 454.012 362.449 459.439 361.95C464.051 361.524 463.603 360.738 463.364 359.28C461.303 359.769 457.365 360.453 455.065 359.255C451.87 357.594 449.577 356.435 449.577 356.435L444.526 354C444.497 354.793 444.49 355.517 444.516 355.896Z" fill="black"/>
<path d="M416.822 361.776C417.061 362.203 417.462 362.524 417.941 362.671L418.026 362.693C419.511 363 425.247 363 425.247 363C425.247 363 431.047 358.662 432.802 358.564C434.556 358.465 435.5 356.996 435.5 356.996C435.5 356.996 435.465 355.987 435.354 354.813C435.217 353.423 434.979 351.809 434.556 351.385C433.781 350.601 433.603 349.54 431.858 350.211C431.858 350.211 429.366 345.962 426.43 349.245L423.391 353.703C423.391 353.703 422.819 355.548 418.97 357.549C417.432 358.348 416.746 359.289 416.552 360.147C416.429 360.704 416.526 361.285 416.822 361.776Z" fill="#65617D"/>
<path opacity="0.1" d="M416.822 361.804C417.165 362.078 417.543 362.372 417.941 362.679L418.026 362.7C419.511 363 425.247 363 425.247 363C425.247 363 431.047 358.761 432.802 358.665C434.556 358.569 435.5 357.133 435.5 357.133C435.5 357.133 435.465 356.148 435.354 355C433.568 355.505 430.863 356.397 430.138 357.358C429.026 358.821 425.648 360.864 425.648 360.864C425.648 360.864 419.349 360.29 416.552 360.212C416.429 360.756 416.526 361.324 416.822 361.804Z" fill="black"/>
<path d="M441.5 203.375L449.894 212C449.894 212 460.067 211.272 458.292 208.352C457.388 206.864 457.247 203.75 457.327 201.043C457.401 198.433 457.678 196.21 457.678 196.21C457.678 196.21 443.41 189.308 444.491 195.745C444.724 196.958 444.737 198.201 444.53 199.418C443.922 202.669 441.5 203.375 441.5 203.375Z" fill="#FBBEBE"/>
<path opacity="0.1" d="M444.559 195.905C444.787 197.189 444.8 198.505 444.597 199.794C446.533 201.849 449.176 203.004 451.933 203C453.829 203 455.879 201.369 457.412 200.426C457.484 197.659 457.5 196.398 457.5 196.398C457.5 196.398 443.485 189.092 444.559 195.905Z" fill="black"/>
<path d="M441.5 191.496C441.498 196.395 444.885 200.644 449.661 201.735C454.438 202.826 459.334 200.469 461.459 196.055C463.585 191.641 462.376 186.344 458.545 183.29C454.714 180.236 449.28 180.237 445.451 183.293C442.955 185.284 441.501 188.303 441.5 191.496Z" fill="#FBBEBE"/>
<path opacity="0.1" d="M427.5 269.966C430.073 275.761 446.623 275.88 446.623 275.88V269.562L447.625 269.499C447.192 271.309 448.232 275.722 448.232 275.722C461.311 277.469 464.5 270.414 464.5 270.414L464.045 268L453.855 268.859C453.855 268.859 429.077 267.282 427.968 268.592C427.733 269.023 427.575 269.487 427.5 269.966Z" fill="black"/>
<path d="M446.302 275.868V269.06L447.322 268.995C446.881 270.93 447.94 275.701 447.94 275.701C457.959 277.116 462.277 273.164 463.799 271.12C464.072 270.768 464.307 270.387 464.5 269.985L460.433 247.064L459.468 213.331L458.01 207.413L457.673 204.573V204.54H457.637L456.601 204.985L450.401 207.671L443.358 202.342L443.255 202.268L442.905 202L442.322 202.467L440.875 203.631L436.232 233.673C436.232 233.673 428.188 256.803 426.683 266.139C426.621 266.513 426.573 266.861 426.535 267.187C425.54 275.71 446.302 275.868 446.302 275.868Z" fill="#E7EFFD"/>
<path d="M450.5 209C449.948 209 449.5 208.552 449.5 208C449.5 207.448 449.948 207 450.5 207C451.052 207 451.5 207.448 451.5 208C451.5 208.552 451.052 209 450.5 209Z" fill="#67647E"/>
<path d="M449.5 215C448.948 215 448.5 214.552 448.5 214C448.5 213.448 448.948 213 449.5 213C450.052 213 450.5 213.448 450.5 214C450.5 214.552 450.052 215 449.5 215Z" fill="#67647E"/>
<path d="M449.5 224C448.948 224 448.5 223.552 448.5 223C448.5 222.448 448.948 222 449.5 222C450.052 222 450.5 222.448 450.5 223C450.5 223.552 450.052 224 449.5 224Z" fill="#67647E"/>
<path d="M447.5 233C446.948 233 446.5 232.552 446.5 232C446.5 231.448 446.948 231 447.5 231C448.052 231 448.5 231.448 448.5 232C448.5 232.552 448.052 233 447.5 233Z" fill="#67647E"/>
<path d="M446.5 242C445.948 242 445.5 241.552 445.5 241C445.5 240.448 445.948 240 446.5 240C447.052 240 447.5 240.448 447.5 241C447.5 241.552 447.052 242 446.5 242Z" fill="#67647E"/>
<path d="M446.5 252C445.948 252 445.5 251.552 445.5 251C445.5 250.448 445.948 250 446.5 250C447.052 250 447.5 250.448 447.5 251C447.5 251.552 447.052 252 446.5 252Z" fill="#67647E"/>
<path d="M446.5 262C445.948 262 445.5 261.552 445.5 261C445.5 260.448 445.948 260 446.5 260C447.052 260 447.5 260.448 447.5 261C447.5 261.552 447.052 262 446.5 262Z" fill="#67647E"/>
<path opacity="0.1" d="M457.536 249.952C457.536 249.952 458.274 258.73 459.627 261.284C460.981 263.837 461.584 271 461.584 271L464.727 270.678C465.029 270.326 465.288 269.945 465.5 269.543L461.02 246.622L459.957 212.889L458.348 206.967L457.976 204.127L457.933 204.111C457.577 203.958 457.164 203.964 456.813 204.127L456.665 204.198C456.709 204.314 456.752 204.433 456.792 204.555C458.018 208.047 458.476 214.481 458.476 214.481C458.476 214.481 456.704 226.251 456.519 231.725C456.335 237.199 457.536 249.952 457.536 249.952Z" fill="black"/>
<path opacity="0.1" d="M464.5 270.022C464.531 270.103 464.566 270.182 464.607 270.257C465.686 272.326 468.423 273.64 469.255 274C469.412 273.683 469.5 273.498 469.5 273.498L468.922 270.425L465.868 269C465.384 269.29 464.926 269.632 464.5 270.022Z" fill="black"/>
<path d="M471.716 225L474.424 226.552L476.889 237.102C476.889 237.102 479.976 246.05 477.604 252.443C475.232 258.836 473.853 262.496 473.853 262.496C473.853 262.496 472.904 269.757 471.478 270.351C470.053 270.944 469.439 271.264 469.439 271.264L469.154 273C469.154 273 465.289 271.738 463.924 269.515C462.558 267.291 464.93 261.77 464.93 261.77C464.93 261.77 466.97 257.065 466.446 254.873C465.923 252.682 467.493 246.928 467.493 246.806C467.493 246.683 467.634 243.608 466.487 241.255C465.339 238.902 466.104 237.899 466.104 237.899L466.819 231.186L471.716 225Z" fill="#67647E"/>
<path opacity="0.1" d="M426.5 268.75C426.5 268.75 433.415 271.334 435.612 269.071C437.809 266.808 437.582 256.186 437.582 256.186C437.582 256.186 439.685 236.588 441.015 233.37C442.345 230.151 441.662 206.921 441.662 206.921C441.662 206.921 442.555 203.917 443.335 203.131C443.384 203.081 443.44 203.037 443.5 203L443.231 203.058L442.293 203.256L440.837 204.414L436.168 234.29C436.168 234.29 428.079 257.292 426.565 266.577L426.5 268.75Z" fill="black"/>
<path opacity="0.1" d="M418.5 269.664H418.581C419.485 269.767 427.466 270.608 427.5 269.16C427.501 268.993 427.491 268.826 427.47 268.659L420.073 268L418.608 269.313C418.581 269.398 418.561 269.471 418.54 269.53L418.5 269.664Z" fill="black"/>
<path d="M426.203 215L421.133 217.589C421.133 217.589 416.908 228.297 416.232 232.888C416.232 232.888 413.102 245.186 415.257 250.244C417.412 255.302 417.233 265.342 417.233 265.342C417.233 265.342 418.474 267.187 418.981 266.694C419.488 266.201 418.796 268.628 418.796 268.628C418.796 268.628 427.464 269.754 427.5 268.087C427.535 266.42 425.511 258.455 425.511 258.455C425.511 258.455 424.958 239.505 425.741 236.533C426.525 233.562 426.203 215 426.203 215Z" fill="#67647E"/>
<path opacity="0.1" d="M440.847 235C440.847 235 444.055 242.169 445.089 242.643C446.123 243.116 444.881 245 444.881 245C444.881 245 439.039 237.548 440.847 235Z" fill="black"/>
<path opacity="0.1" d="M442.5 211.004C442.464 210.873 446.322 214.314 447.355 214.834C448.388 215.354 443.584 214.802 442.5 211.004Z" fill="black"/>
<path opacity="0.1" d="M452.5 234C452.5 234 458.182 237.441 457.432 238.803C456.681 240.166 452.5 234 452.5 234Z" fill="black"/>
<path opacity="0.1" d="M443.5 283C443.5 283 438.805 286.211 431.5 287L443.5 283Z" fill="black"/>
<path opacity="0.1" d="M453.5 291C453.5 291 449.57 295.873 447.777 295.998C445.983 296.123 453.5 291 453.5 291Z" fill="black"/>
<path opacity="0.1" d="M447.5 310C447.686 310.094 449.85 314.852 452.057 314.997C454.264 315.142 447.5 310 447.5 310Z" fill="black"/>
<path opacity="0.1" d="M428.5 320.126C428.5 320.126 424.411 319.274 423.5 322C423.5 321.991 423.775 321.138 428.5 320.126Z" fill="black"/>
<path opacity="0.1" d="M431.5 336.571C431.5 336.571 426.638 334.958 425.605 337.155C424.572 339.352 431.5 336.571 431.5 336.571Z" fill="black"/>
<path opacity="0.1" d="M445.157 339C445.157 339.044 449.658 339.982 449.496 340.605C449.334 341.228 444.694 341.14 444.529 340.158C444.469 339.914 444.502 339.654 444.62 339.436C444.738 339.219 444.931 339.061 445.157 339Z" fill="black"/>
<path opacity="0.1" d="M433.5 343.354C433.5 343.354 425.001 342.126 425.523 344.244C426.045 346.363 433.5 343.354 433.5 343.354Z" fill="black"/>
<path opacity="0.1" d="M476.5 242C476.456 242.104 471.21 242.667 470.5 244C470.5 244 475.655 242.104 476.469 242.104" fill="black"/>
<path opacity="0.1" d="M468.5 256C468.5 256 472.791 257.663 472.484 260.168C472.178 262.672 472.921 259.008 468.5 256Z" fill="black"/>
<path opacity="0.1" d="M470.5 267C470.5 267 469.101 264.617 467.768 265.053C466.436 265.49 470.5 267 470.5 267Z" fill="black"/>
<path opacity="0.1" d="M445.513 183.308C445.668 183.46 445.843 183.592 446.032 183.699C447.313 184.451 447.665 185.611 448.274 186.948C448.841 188.173 449.465 189.468 450.609 190.162C452.086 191.061 454.03 190.731 455.564 191.513C456.958 192.244 457.769 193.758 457.614 195.334C457.517 195.929 457.371 196.514 457.178 197.085C456.83 198.32 456.672 199.603 456.711 200.887C456.708 200.925 456.708 200.962 456.711 201C460.292 199.195 462.539 195.489 462.499 191.452C462.46 187.414 460.14 183.754 456.524 182.021C452.908 180.289 448.628 180.788 445.5 183.308H445.513Z" fill="black"/>
<path d="M445.879 180.223C447.064 177.802 449.643 176.268 452.295 175.52C454.319 174.951 456.518 174.765 458.526 175.391C459.672 175.744 460.712 176.354 461.785 176.878C463.786 177.86 465.985 178.637 467.491 180.252C467.845 180.628 468.152 181.109 468.063 181.607C467.987 181.976 467.689 182.249 467.498 182.589C467.065 183.328 467.168 184.256 467.468 185.058C467.769 185.861 468.195 186.606 468.399 187.431C468.604 188.256 468.525 189.222 467.897 189.81C467.617 190.07 467.257 190.234 466.953 190.452C466.61 190.74 466.309 191.073 466.058 191.441L464.275 193.81C463.437 194.86 462.691 195.976 462.043 197.146C461.6 198.007 461.257 198.925 460.662 199.692C460.068 200.459 459.144 201.076 458.159 200.992C458.005 200.996 457.858 200.928 457.763 200.809C457.727 200.734 457.71 200.652 457.714 200.569C457.67 199.297 457.83 198.027 458.186 196.803C458.385 196.236 458.535 195.654 458.635 195.062C458.79 193.496 457.955 191.995 456.522 191.264C454.937 190.487 452.932 190.815 451.413 189.926C450.231 189.232 449.587 187.945 449.006 186.715C448.369 185.386 448.015 184.233 446.695 183.485C445.374 182.737 445.222 181.498 445.879 180.223Z" fill="#3F3D56"/>
<path opacity="0.1" d="M450.5 352C450.5 352 447.946 353.8 448.61 354.826C449.274 355.852 450.5 352 450.5 352Z" fill="black"/>
<path opacity="0.1" d="M428.5 357C428.5 357 428.157 354.066 426.78 354.039C425.403 354.011 425.335 353.881 424.283 354.331C423.231 354.781 422.244 355.478 422.56 355.581C422.875 355.684 424.37 353.905 425.904 354.815C426.862 355.397 427.737 356.133 428.5 357Z" fill="black"/>
<path opacity="0.1" d="M455.16 212L450.5 208.629C450.5 208.629 457.317 204.472 458.129 205.056C458.941 205.64 459.5 210.897 459.5 210.897L455.16 212Z" fill="black"/>
<path d="M455.16 212L450.5 208.596C450.5 208.596 457.317 204.477 458.129 205.056C458.941 205.634 459.5 211.129 459.5 211.129L455.16 212Z" fill="#E1E7EF"/>
<path d="M455.16 212L450.5 208.596C450.5 208.596 457.317 204.477 458.129 205.056C458.941 205.634 459.5 211.129 459.5 211.129L455.16 212Z" fill="#E7EFFD"/>
<path d="M457.656 204.195L457.794 204.128C458.213 203.918 458.718 203.97 459.084 204.26L472.879 215.244C472.879 215.244 475.877 219.315 475.46 226.34L467.325 237.653C467.325 237.653 466.395 233.823 465.282 234.551C465.282 234.551 463.702 254.168 465.282 256.996C466.862 259.823 467.558 270.407 467.558 270.407L462.214 271C462.214 271 461.656 263.837 460.401 261.283C459.147 258.73 458.464 249.951 458.464 249.951C458.464 249.951 457.334 237.198 457.521 231.724C457.708 226.25 459.334 214.48 459.334 214.48C459.334 214.48 458.877 207.58 457.656 204.195Z" fill="#67647E"/>
<path opacity="0.1" d="M443.916 209L449.5 206.885C449.5 206.885 442.39 198.915 441.5 203.335L443.916 209Z" fill="black"/>
<path d="M443.916 209L449.5 206.885C449.5 206.885 442.39 198.915 441.5 203.335L443.916 209Z" fill="#E1E7EF"/>
<path d="M443.916 209L449.5 206.885C449.5 206.885 442.39 198.915 441.5 203.335L443.916 209Z" fill="#E7EFFD"/>
<path opacity="0.1" d="M443.616 201.976C443.535 201.963 443.452 201.982 443.384 202.028L443.616 201.976Z" fill="black"/>
<path d="M443.5 202.006L428.396 205.209C428.396 205.209 424.24 206.115 421.239 216.358C418.238 226.601 425.349 239.15 425.349 239.15L426.918 237.84L426.132 267.752C426.132 267.752 433.103 270.333 435.318 268.072C437.533 265.811 437.302 255.19 437.302 255.19C437.302 255.19 439.426 235.614 440.766 232.395C442.107 229.176 441.419 205.974 441.419 205.974C441.419 205.974 442.652 201.826 443.5 202.006Z" fill="#67647E"/>
<path opacity="0.1" d="M429.318 221.136C429.513 221.33 429.74 230.481 428.893 237.446C428.376 241.688 427.576 245.883 426.5 250L427.757 222.098C427.757 222.098 428.726 220.54 429.318 221.136Z" fill="black"/>
<path opacity="0.1" d="M431.5 213C430.987 213.237 428.737 217.163 429.767 218.771C430.797 220.379 431.5 213 431.5 213Z" fill="black"/>
<path opacity="0.1" d="M445.858 180.531C446.575 179.048 447.693 177.82 449.072 177C448.047 177.77 447.219 178.794 446.663 179.981C446.031 181.306 446.218 182.631 447.446 183.357C448.674 184.082 449.056 185.318 449.656 186.689C450.215 187.944 450.83 189.273 451.961 190.001C453.413 190.922 455.329 190.581 456.845 191.383C458.214 192.139 459.013 193.688 458.865 195.305C458.768 195.914 458.624 196.513 458.433 197.097C458.089 198.364 457.934 199.679 457.972 200.996C457.969 201.081 457.986 201.167 458.022 201.244C458.111 201.367 458.251 201.438 458.398 201.433C458.777 201.463 459.157 201.389 459.5 201.217C458.998 201.74 458.312 202.022 457.606 201.996C457.49 202.014 457.374 201.973 457.291 201.888C457.208 201.802 457.168 201.68 457.183 201.559C457.142 200.242 457.296 198.927 457.64 197.66C457.833 197.075 457.978 196.475 458.073 195.865C458.222 194.249 457.423 192.7 456.052 191.946C454.537 191.144 452.62 191.482 451.168 190.565C450.038 189.849 449.422 188.521 448.867 187.252C448.257 185.881 447.919 184.692 446.657 183.92C445.394 183.148 445.226 181.846 445.858 180.531Z" fill="black"/>
</g>
<defs>
<filter id="filter0_d" x="0" y="0" width="492" height="384" filterUnits="userSpaceOnUse" color-interpolation-filters="sRGB">
<feFlood flood-opacity="0" result="BackgroundImageFix"/>
<feColorMatrix in="SourceAlpha" type="matrix" values="0 0 0 0 0 0 0 0 0 0 0 0 0 0 0 0 0 0 127 0"/>
<feOffset dy="4"/>
<feGaussianBlur stdDeviation="2"/>
<feColorMatrix type="matrix" values="0 0 0 0 0 0 0 0 0 0 0 0 0 0 0 0 0 0 0.25 0"/>
<feBlend mode="normal" in2="BackgroundImageFix" result="effect1_dropShadow"/>
<feBlend mode="normal" in="SourceGraphic" in2="effect1_dropShadow" result="shape"/>
</filter>
<linearGradient id="paint0_linear" x1="414.502" y1="364" x2="414.502" y2="174.015" gradientUnits="userSpaceOnUse">
<stop stop-color="#808080" stop-opacity="0.25"/>
<stop offset="0.54" stop-color="#808080" stop-opacity="0.12"/>
<stop offset="1" stop-color="#808080" stop-opacity="0.1"/>
</linearGradient>
</defs>
</svg>
