<svg width="20" height="17" viewBox="0 0 20 17" fill="none" xmlns="http://www.w3.org/2000/svg">
<path fill-rule="evenodd" clip-rule="evenodd" d="M16.5941 16.5777L19.9882 0.639032C20.0756 0.228007 19.6619 -0.114896 19.261 0.036472L0.347935 7.15952C-0.118856 7.33506 -0.114856 7.98027 0.353269 8.15147L4.96169 9.83059L6.74542 15.431C6.85958 15.7895 7.30885 15.9221 7.60694 15.6841L10.1758 13.6398C10.4451 13.4254 10.8286 13.4148 11.1099 13.6142L15.7432 16.8983C16.0621 17.1245 16.5141 16.954 16.5941 16.5777ZM6.44539 9.47202L15.7508 4.02467C15.9179 3.92709 16.0901 4.14201 15.9463 4.26858L8.26673 11.0537C7.99673 11.2924 7.8227 11.6122 7.7733 11.9591L7.51183 13.8018C7.47699 14.0477 7.11358 14.072 7.04201 13.834L6.03593 10.4739C5.92087 10.0906 6.08874 9.68121 6.44539 9.47202Z" fill="white"/>
</svg>
